<svg width="25" height="24" viewBox="0 0 25 24" fill="none" xmlns="http://www.w3.org/2000/svg">
<path d="M10.6816 3H13.6554V16.6268C12.3861 16.8883 11.094 17.0228 9.79811 17.028C6.16661 17.0243 4.27661 15.402 4.27661 12.2865C4.27661 9.2865 6.28136 7.3365 9.38861 7.3365C9.82438 7.32848 10.2593 7.37893 10.6816 7.4865V3ZM10.6816 9.8565C10.3583 9.74997 10.0192 9.69925 9.67886 9.7065C8.17886 9.7065 7.30661 10.6238 7.30661 12.231C7.30661 13.7963 8.13686 14.6603 9.66011 14.6603C10.002 14.6612 10.3435 14.6361 10.6816 14.5853V9.86025V9.8565Z" fill="#44B78B"/>
<path d="M18.3803 7.54427V14.3693C18.3803 16.719 18.204 17.8485 17.688 18.8228C17.1612 19.8132 16.3001 20.5847 15.258 21L12.4995 19.7003C13.5019 19.3576 14.3414 18.655 14.8553 17.7285C15.2798 16.8878 15.414 15.9135 15.414 13.3508V7.54427H18.3803ZM15.411 3.01501H18.384V6.03602H15.411V3.01501Z" fill="#44B78B"/>
</svg>
