<svg width="25" height="24" viewBox="0 0 25 24" fill="none" xmlns="http://www.w3.org/2000/svg">
<g clip-path="url(#clip0_2281_5361)">
<path d="M12.1454 7.80359V8.60834H8.49382L8.48838 8.60309L8.48313 8.60815H1.33582C1.33234 8.60815 1.329 8.60953 1.32654 8.612C1.32408 8.61446 1.3227 8.6178 1.3227 8.62128V12.1753H0.174072V12.2535H1.32288V15.763C1.32293 15.7664 1.32434 15.7697 1.32679 15.7721C1.32925 15.7745 1.33256 15.7759 1.33601 15.7759H4.86776V17.3772H4.94595V15.7759H8.44938V15.789H8.47001L8.4882 15.8072L8.50713 15.789H8.52757V15.7759H12.1454V16.347H12.2234V15.7759H15.8566V15.789H15.877L15.8958 15.8072L15.9139 15.789H15.9346V15.7759H19.4361V16.555H19.5141V15.7759H23.0485C23.052 15.7759 23.0552 15.7744 23.0577 15.772C23.0601 15.7695 23.0614 15.7662 23.0614 15.7628V12.2537H23.9866V12.1755H23.0614V8.62128C23.0614 8.6178 23.0601 8.61446 23.0576 8.612C23.0551 8.60953 23.0518 8.60815 23.0483 8.60815H19.5141V8.60571H19.4361V8.60834H15.9012L15.8959 8.60309L15.8905 8.60815H12.2236V7.80378L12.1454 7.80359ZM1.36713 8.63421H4.86776V12.1423L1.36713 8.63421ZM4.94595 8.63421H8.44938V8.64171L4.94595 12.1401V8.63421ZM8.52757 8.63421H12.1454V12.1416L8.52757 8.64096V8.63421ZM12.2236 8.63421H15.8568V8.64096L12.2236 12.1566V8.63421ZM15.9348 8.63421H19.4361V12.1377L15.9348 8.6419V8.63421ZM19.5141 8.63421H23.017L19.5141 12.1444V8.63421ZM1.34876 8.65278L4.86382 12.1753H1.34876V8.65278ZM23.035 8.65278V12.1753H19.5199L23.035 8.65278ZM8.5272 8.67715L12.1422 12.1753H8.5272V8.67715ZM15.8562 8.67715V12.1753H12.2412L15.8562 8.67715ZM8.44901 8.67865V12.1752H4.94707L8.44901 8.67865ZM15.9344 8.67865L19.4358 12.1746V12.1753H15.9344V8.67865ZM1.34857 12.2533H4.83195L1.34857 15.7315V12.2533ZM4.97838 12.2533H8.44901V15.7315L4.97838 12.2533ZM8.5272 12.2533H12.1231L8.5272 15.7332V12.2533ZM12.2605 12.2533H15.8564V15.7332L12.2605 12.2533ZM15.9346 12.2533H19.4052L15.9346 15.7315V12.2533ZM19.5139 12.2533H19.5147L23.0164 15.75H19.5138L19.5139 12.2533ZM19.5516 12.2533H23.035V15.7315L19.5516 12.2533ZM12.2232 12.2535L15.8363 15.75H12.2232V12.2535ZM4.86757 12.2547V15.7497H1.36713L4.86757 12.2547ZM4.94576 12.2573L8.43101 15.7497H4.94576V12.2573ZM19.4358 12.2595V15.7498H15.9531L19.4358 12.2595ZM12.1452 12.2683V15.7497H8.54745L12.1452 12.2683Z" fill="#CECECE"/>
<path d="M12.1845 9.65472C12.1337 9.65491 12.084 9.66973 12.0414 9.69741C11.9988 9.72509 11.9651 9.76446 11.9443 9.81081C11.9235 9.85715 11.9165 9.90852 11.9241 9.95875C11.9317 10.009 11.9536 10.0559 11.9873 10.094L5.64469 13.6993L5.65144 13.7107C6.05588 14.3938 6.54975 15.0202 7.16175 15.5715L7.1715 15.5803L7.18013 15.5703L12.0075 10.1147C12.0393 10.1436 12.0776 10.1644 12.1193 10.1752C12.1609 10.186 12.2045 10.1865 12.2464 10.1766C12.2882 10.1667 12.327 10.1468 12.3594 10.1185C12.3918 10.0902 12.4168 10.0545 12.4323 10.0144C12.4478 9.97424 12.4532 9.93095 12.4482 9.88825C12.4431 9.84554 12.4277 9.80472 12.4033 9.76931C12.3789 9.7339 12.3463 9.70497 12.3082 9.68504C12.2701 9.6651 12.2277 9.65476 12.1847 9.65491L12.1845 9.65472ZM12.1845 9.6806C12.2236 9.68063 12.2622 9.69031 12.2967 9.70877C12.3312 9.72724 12.3606 9.75394 12.3824 9.78649C12.4041 9.81904 12.4175 9.85644 12.4213 9.8954C12.4251 9.93435 12.4193 9.97365 12.4043 10.0098C12.3894 10.046 12.3657 10.0779 12.3355 10.1027C12.3052 10.1276 12.2693 10.1446 12.2309 10.1522C12.1925 10.1599 12.1529 10.158 12.1154 10.1467C12.0779 10.1353 12.0438 10.1149 12.0161 10.0873C11.9828 10.054 11.96 10.0115 11.9508 9.96533C11.9416 9.9191 11.9463 9.87118 11.9643 9.82763C11.9823 9.78409 12.0129 9.74687 12.0521 9.72069C12.0913 9.69452 12.1374 9.68056 12.1845 9.6806ZM21.2481 9.76047V9.78672H21.5387V15.5824H21.2481V15.6086H21.8554V15.5824H21.5648V9.78672H21.8554V9.76047H21.2481ZM3.68475 9.85666L3.67163 9.85722H3.67125L3.65794 9.85797L3.64575 9.85872V10.6301L3.66 10.6286L3.67181 10.6278C3.68767 10.6286 3.70322 10.6325 3.71757 10.6393C3.73193 10.6461 3.7448 10.6556 3.75547 10.6674C3.76613 10.6792 3.77438 10.6929 3.77973 10.7078C3.78508 10.7228 3.78743 10.7386 3.78666 10.7545C3.78588 10.7704 3.78199 10.7859 3.77521 10.8003C3.76842 10.8146 3.75888 10.8275 3.74711 10.8382C3.73535 10.8488 3.72161 10.8571 3.70666 10.8624C3.69171 10.8678 3.67586 10.8701 3.66 10.8693L3.64575 10.8678V11.6396L3.65813 11.6402L3.67125 11.6405H3.67181C3.90812 11.6423 4.13544 11.5501 4.30377 11.3842C4.47209 11.2183 4.56764 10.9924 4.56938 10.7561C4.57112 10.5198 4.47891 10.2925 4.31305 10.1241C4.14719 9.95582 3.92125 9.86028 3.68494 9.85854L3.68475 9.85666ZM3.672 9.88329C3.78567 9.88329 3.89822 9.90568 4.00323 9.94919C4.10824 9.9927 4.20365 10.0565 4.284 10.1369C4.36436 10.2173 4.42809 10.3127 4.47155 10.4177C4.51502 10.5227 4.53736 10.6353 4.53731 10.749C4.53734 10.8626 4.51497 10.9752 4.47148 11.0802C4.428 11.1852 4.36424 11.2807 4.28387 11.361C4.2035 11.4414 4.10807 11.5052 4.00306 11.5486C3.89804 11.5921 3.78548 11.6145 3.67181 11.6145V10.896C3.70992 10.8946 3.74601 10.8785 3.77248 10.8511C3.79895 10.8236 3.81375 10.787 3.81375 10.7489C3.81375 10.7108 3.79895 10.6741 3.77248 10.6467C3.74601 10.6192 3.70992 10.6031 3.67181 10.6018L3.672 9.88329ZM14.9181 9.91929V9.91985C14.7937 9.92411 14.6758 9.97652 14.5893 10.066C14.5028 10.1555 14.4545 10.2751 14.4545 10.3996C14.4545 10.524 14.5028 10.6436 14.5893 10.7331C14.6758 10.8226 14.7937 10.875 14.9181 10.8793V13.4287H14.9169C14.7912 13.4312 14.6714 13.4829 14.5833 13.5728C14.4952 13.6626 14.4459 13.7834 14.4459 13.9092C14.4459 14.035 14.4952 14.1558 14.5833 14.2456C14.6714 14.3355 14.7912 14.3872 14.9169 14.3897C15.0415 14.389 15.1609 14.3399 15.2499 14.2529C15.339 14.1658 15.3907 14.0476 15.3943 13.9231C15.3978 13.7986 15.3528 13.6776 15.2688 13.5857C15.1848 13.4937 15.0684 13.438 14.9441 13.4302V10.8791C15.2031 10.8722 15.4114 10.6603 15.4114 10.3995C15.4114 10.1387 15.2033 9.9266 14.9441 9.91966V9.9191L14.9181 9.91929ZM14.9181 9.94591V10.8534C14.7977 10.8534 14.6823 10.8056 14.5972 10.7205C14.5121 10.6354 14.4643 10.52 14.4643 10.3997C14.4643 10.2793 14.5121 10.1639 14.5972 10.0788C14.6823 9.99372 14.7977 9.94591 14.9181 9.94591ZM14.9441 9.94591C15.0645 9.94591 15.1799 9.99372 15.265 10.0788C15.3501 10.1639 15.3979 10.2793 15.3979 10.3997C15.3979 10.52 15.3501 10.6354 15.265 10.7205C15.1799 10.8056 15.0645 10.8534 14.9441 10.8534V9.94591ZM11.9411 10.1503L7.16963 15.5428C6.56775 14.9987 6.08063 14.3814 5.68088 13.7085L11.9411 10.1503ZM6.1125 10.3102V10.9175H6.13838V10.6269H7.36931V10.9175H7.39556V10.3102H7.36931V10.6008H6.13838V10.3102H6.1125ZM10.7801 12.6924V12.7185H11.0708V14.6062H10.7801V14.6323H11.3873V14.606H11.0966V12.7187H11.3873V12.6926L10.7801 12.6924ZM14.9169 13.4546H14.9181V14.3632H14.9169C14.8572 14.3633 14.7981 14.3516 14.7429 14.3288C14.6878 14.3061 14.6376 14.2726 14.5954 14.2304C14.5532 14.1882 14.5197 14.1381 14.4969 14.0829C14.4741 14.0277 14.4624 13.9686 14.4624 13.9089C14.4624 13.8492 14.4741 13.7901 14.4969 13.7349C14.5197 13.6798 14.5532 13.6296 14.5954 13.5874C14.6376 13.5452 14.6878 13.5118 14.7429 13.489C14.7981 13.4662 14.8572 13.4545 14.9169 13.4546ZM14.9439 13.4559C15.0596 13.4626 15.1683 13.5132 15.2478 13.5974C15.3273 13.6816 15.3716 13.7931 15.3716 13.9089C15.3716 14.0247 15.3273 14.1362 15.2478 14.2204C15.1683 14.3046 15.0596 14.3553 14.9439 14.3619V13.4559ZM17.427 13.5375V14.145H17.4533V13.8543H19.7074V14.145H19.7336V13.5375H19.7074V13.8281H17.4533V13.5375H17.427Z" fill="#6C6C6C"/>
<path d="M15.2804 8.4585L15.2247 8.45869C14.9406 8.46319 14.3318 8.46207 13.7866 8.70882C13.2415 8.95557 12.7623 9.46707 12.7623 10.4428C12.7623 10.8553 12.8999 11.2116 13.1159 11.5172H8.76401V9.54638H11.6209V8.54307H7.61501V9.54619H7.61538V11.5172H7.61501V12.5203H7.61538V14.856L6.94413 14.8519L6.01526 14.8562L4.5612 12.5972C4.90207 12.4566 5.23563 12.2544 5.49232 11.9711C5.7717 11.6631 5.95845 11.2605 5.95845 10.7623V10.6191C5.95845 9.89025 5.68057 9.36732 5.2272 9.03394C4.77401 8.70057 4.15395 8.55319 3.4647 8.53763H1.2522V9.552H1.25782V11.9349H1.2522V12.882H1.25782V15.8546H2.40645V12.879L3.56145 12.8758L5.14713 15.4556L5.14938 15.4586C5.28382 15.6364 5.56282 16.0313 6.01376 16.3155L6.0522 16.3399L6.96363 15.8589L7.69376 15.8546H11.6208V14.8119H8.76382V12.5203H14.4128L14.4186 12.5231C14.7687 12.6831 15.1934 12.8278 15.5241 13.0365C15.8547 13.245 16.0861 13.5032 16.0861 13.9131C16.0861 14.3544 15.8869 14.5854 15.6061 14.7257C15.3252 14.8659 14.9586 14.9006 14.6568 14.9006H14.6562C14.0774 14.9042 13.3966 14.6582 12.8151 14.4641L12.7124 14.4298V15.5329L12.7579 15.5537C13.3287 15.8139 14.1739 15.9156 14.6583 15.897C15.0059 15.897 15.6404 15.8288 16.2004 15.5484C16.7614 15.2678 17.2476 14.7591 17.2476 13.9131C17.2476 13.2583 17.0013 12.7888 16.6564 12.4528C16.3114 12.1168 15.8721 11.9109 15.4797 11.7579C15.3306 11.7004 15.0484 11.5877 14.7678 11.4349C14.4876 11.2824 14.2105 11.0874 14.0721 10.8829C13.9859 10.743 13.9328 10.5874 13.9236 10.4402C13.9244 9.99394 14.1323 9.75338 14.4018 9.61144C14.6714 9.46932 15.0074 9.43894 15.2269 9.45488C15.6685 9.48675 16.4294 9.73613 16.6728 9.83982L16.7502 9.873L16.8627 9.54207H19.9086V15.8546H21.0573V9.54188H23.1216V8.54738H21.0573V8.54288H19.9086V8.54738H15.94C15.7195 8.49413 15.4981 8.46019 15.2802 8.45813L15.2804 8.4585ZM15.2789 8.61469C15.4851 8.61657 15.6991 8.649 15.9145 8.70169L15.9237 8.70394H20.0654V8.69944H20.9016V8.70394H22.966V9.38588H20.9016V15.6984H20.0654V9.38588H16.7515L16.6559 9.66657C16.3489 9.54469 15.6895 9.33169 15.2388 9.29907C14.995 9.28163 14.6373 9.31107 14.3294 9.47344C14.0213 9.63563 13.7676 9.94407 13.7676 10.4428V10.4475C13.7785 10.6264 13.8415 10.8064 13.9407 10.9669L13.9414 10.9682L13.9424 10.9695C14.1078 11.2148 14.4027 11.4139 14.6937 11.5723C14.9847 11.7308 15.2729 11.8455 15.4238 11.9036C15.8082 12.0536 16.2278 12.2531 16.5477 12.5649C16.8678 12.8768 17.0918 13.2969 17.0918 13.9131C17.0918 14.7006 16.6583 15.1449 16.1311 15.4089C15.6038 15.6729 14.9832 15.741 14.6573 15.741H14.6541C14.2122 15.7581 13.4016 15.6581 12.8691 15.4298V14.6469C13.4256 14.8346 14.0701 15.0606 14.6577 15.057C14.9708 15.057 15.3574 15.0249 15.6766 14.8656C15.9957 14.7062 16.2428 14.4043 16.2428 13.9131C16.2428 13.4426 15.9616 13.1274 15.6079 12.9043C15.2543 12.6812 14.8225 12.5359 14.4841 12.3812L14.4634 12.3714L14.4479 12.3643H8.60782V14.9681H11.4648V15.6983H7.69338L6.92463 15.7028L6.06101 16.1584C5.66407 15.8964 5.41076 15.5453 5.27632 15.3671L3.64882 12.7193L2.25007 12.723V15.6983H1.41438V12.7258H1.40876V12.0911H1.41438V9.39582H1.40876V8.69382H3.46151C4.13032 8.709 4.71907 8.85394 5.13495 9.15975C5.55101 9.46575 5.80263 9.92907 5.80263 10.6191V10.7623C5.80263 11.2217 5.63426 11.5823 5.37701 11.8663C5.11957 12.1502 4.77101 12.3557 4.41701 12.4896L4.32701 12.5237C4.86382 13.3519 5.39651 14.1829 5.93051 15.0128L6.94432 15.0081L7.77195 15.0129V12.3641H7.77157V11.6734H7.77195V9.39001H7.77157V8.69925H11.4653V9.39001H8.60782V11.6734H13.4314L13.3266 11.5457C13.0739 11.2376 12.9186 10.8748 12.9186 10.4428C12.9186 9.51657 13.3463 9.07969 13.8513 8.85094C14.356 8.62257 14.9401 8.61938 15.2275 8.61488C15.2446 8.61463 15.2618 8.61463 15.2791 8.61488L15.2789 8.61469ZM2.25007 9.396V12.0913H3.19826C3.59688 12.0913 4.01595 12.0328 4.34445 11.835C4.67276 11.6372 4.90188 11.2913 4.90188 10.7625V10.6193C4.90188 10.0839 4.60132 9.76538 4.27638 9.59719C3.95163 9.42882 3.60551 9.396 3.46282 9.396H2.25007ZM2.40645 9.55219H3.46282C3.57907 9.55219 3.91376 9.585 4.20457 9.73575C4.49538 9.8865 4.7457 10.1406 4.7457 10.6193V10.7625C4.7457 11.2478 4.55276 11.5269 4.26382 11.7011C3.97488 11.8753 3.58113 11.9349 3.19826 11.9349H2.40645V9.55219Z" fill="#7F2D2D"/>
<path d="M2.34423 5.32782C2.33733 5.32787 2.33073 5.33063 2.32585 5.33551C2.32098 5.34038 2.31822 5.34699 2.31817 5.35388V5.86838C2.31817 5.89601 2.31985 5.93107 2.32323 5.97357C2.32454 5.99157 2.32604 6.00169 2.32735 6.01651C2.30692 5.99307 2.28835 5.96832 2.26285 5.94882C2.2216 5.91632 2.1731 5.89069 2.11735 5.87194C2.0541 5.85209 1.98808 5.84253 1.92179 5.84363C1.74685 5.84363 1.60267 5.90363 1.49617 6.02213C1.38873 6.14101 1.33679 6.31501 1.33679 6.54001C1.33679 6.76276 1.38742 6.93488 1.49242 7.05207C1.59742 7.16869 1.74179 7.22719 1.91804 7.22719C1.99342 7.22719 2.05942 7.21776 2.11604 7.19888C2.17279 7.17926 2.22192 7.15282 2.26304 7.11957C2.29192 7.09669 2.31273 7.06951 2.33448 7.04288L2.35792 7.18201C2.35897 7.18807 2.36212 7.19357 2.36682 7.19754C2.37151 7.20152 2.37745 7.20372 2.3836 7.20376H2.5486C2.55553 7.20376 2.56218 7.20102 2.5671 7.19614C2.57202 7.19125 2.5748 7.18462 2.57485 7.17769V5.35388C2.5748 5.34695 2.57202 5.34032 2.5671 5.33544C2.56218 5.33056 2.55553 5.32782 2.5486 5.32782H2.34423ZM3.11579 5.38651C3.077 5.38571 3.03927 5.39927 3.00985 5.42457C2.97985 5.45119 2.96673 5.49207 2.96673 5.54026C2.96673 5.58788 2.97985 5.62838 3.00948 5.65557L3.00985 5.65576C3.03924 5.68113 3.07697 5.69475 3.11579 5.69401C3.15479 5.69401 3.19079 5.68088 3.21892 5.65594C3.25023 5.62913 3.26485 5.58807 3.26485 5.54026C3.26485 5.49169 3.25023 5.45044 3.21873 5.42438C3.19019 5.39949 3.15366 5.386 3.11579 5.38651ZM7.19729 5.81719C7.08604 5.81694 6.9901 5.83494 6.90948 5.87119C6.82904 5.90738 6.76623 5.96119 6.7231 6.03113C6.67998 6.10069 6.65898 6.18451 6.65898 6.28051C6.65898 6.37163 6.68204 6.45338 6.72835 6.52351L6.72873 6.52369C6.76679 6.57938 6.81704 6.61913 6.87385 6.64894C6.83354 6.67594 6.79885 6.70407 6.77523 6.73444C6.74476 6.77437 6.72852 6.82335 6.7291 6.87357C6.7291 6.91951 6.74354 6.96188 6.77167 6.99751L6.77185 6.99788C6.78673 7.01601 6.80329 7.03176 6.82154 7.04513C6.74973 7.06744 6.68635 7.09894 6.64023 7.14751C6.58306 7.20803 6.55164 7.28851 6.55304 7.37176C6.55304 7.49232 6.60685 7.59076 6.70867 7.65713C6.81085 7.72463 6.95279 7.75651 7.13317 7.75651C7.36585 7.75651 7.54623 7.71844 7.6741 7.63876C7.8016 7.55907 7.86854 7.43926 7.86854 7.28963C7.86854 7.17113 7.82504 7.07551 7.73992 7.01213C7.65554 6.94876 7.53723 6.91913 7.38685 6.91913H7.1491C7.11428 6.91942 7.07951 6.91647 7.04523 6.91032C7.02396 6.90637 7.00399 6.89723 6.9871 6.88369C6.97698 6.87394 6.9721 6.86251 6.9721 6.84319C6.9721 6.81507 6.97998 6.79182 6.99704 6.77044C7.01947 6.74555 7.04646 6.72519 7.07654 6.71044C7.1131 6.71569 7.14948 6.71907 7.18492 6.71907C7.34823 6.71907 7.48023 6.68044 7.57698 6.60057C7.67373 6.52013 7.72323 6.40894 7.72323 6.27469C7.72323 6.21944 7.71448 6.16863 7.69698 6.12226C7.68517 6.09169 7.66829 6.06788 7.65235 6.04276L7.86273 6.01801C7.86906 6.01723 7.87489 6.01418 7.87914 6.00942C7.88338 6.00466 7.88575 5.99851 7.88579 5.99213V5.86669C7.88574 5.8598 7.88298 5.8532 7.8781 5.84832C7.87323 5.84344 7.86663 5.84068 7.85973 5.84063H7.39904C7.3805 5.83593 7.36172 5.83217 7.34279 5.82938C7.31882 5.82534 7.29467 5.82246 7.27042 5.82076C7.24611 5.81838 7.22171 5.81719 7.19729 5.81719ZM4.21267 5.82188C4.12342 5.82188 4.03823 5.83276 3.9571 5.85451C3.88345 5.87356 3.8118 5.89968 3.74317 5.93251C3.73721 5.93547 3.7326 5.94058 3.73027 5.94681C3.72794 5.95304 3.72806 5.95992 3.7306 5.96607L3.79342 6.11363C3.7948 6.11683 3.7968 6.11971 3.79931 6.12212C3.80182 6.12454 3.80478 6.12642 3.80803 6.12768C3.81127 6.12894 3.81474 6.12954 3.81822 6.12944C3.82169 6.12935 3.82512 6.12856 3.82829 6.12713C3.88454 6.10101 3.94417 6.07838 4.00717 6.05926C4.06854 6.04051 4.13335 6.03113 4.2016 6.03113C4.28842 6.03113 4.35179 6.05194 4.39604 6.09113C4.43804 6.12863 4.46242 6.19801 4.46242 6.30507V6.35869L4.25467 6.36694C4.03379 6.37332 3.8671 6.41063 3.75404 6.48357C3.64117 6.55632 3.58192 6.66544 3.58192 6.80101C3.58192 6.88969 3.60085 6.96544 3.64042 7.02601V7.02638C3.68017 7.08582 3.73473 7.13082 3.80204 7.16007C3.86979 7.18894 3.94648 7.20332 4.03173 7.20319C4.11135 7.20332 4.17948 7.19519 4.2361 7.17882C4.2931 7.16144 4.34348 7.13613 4.38723 7.10288H4.3876C4.4206 7.07701 4.45135 7.04288 4.4821 7.00819L4.5136 7.15913C4.51487 7.16492 4.51807 7.17011 4.52266 7.17386C4.52726 7.1776 4.53299 7.17968 4.53892 7.17976H4.68798C4.69491 7.17976 4.70156 7.17702 4.70648 7.17214C4.71139 7.16725 4.71418 7.16062 4.71423 7.15369V6.28051C4.71423 6.12526 4.67335 6.00676 4.58823 5.93176C4.50367 5.85694 4.37729 5.82188 4.21267 5.82188ZM5.78279 5.84363C5.71954 5.84363 5.65923 5.85219 5.60185 5.86932C5.54575 5.88475 5.49272 5.90974 5.4451 5.94319C5.41184 5.96683 5.38227 5.99526 5.35735 6.02757L5.33429 5.88882C5.33324 5.88276 5.33009 5.87726 5.32539 5.87329C5.3207 5.86931 5.31476 5.86711 5.3086 5.86707H5.1436C5.13671 5.86712 5.13011 5.86988 5.12523 5.87476C5.12035 5.87963 5.11759 5.88624 5.11754 5.89313V7.17769C5.11754 7.18462 5.12028 7.19127 5.12516 7.19619C5.13005 7.20111 5.13668 7.2039 5.1436 7.20394H5.34798C5.35494 7.20394 5.36162 7.20118 5.36654 7.19626C5.37146 7.19133 5.37423 7.18466 5.37423 7.17769V6.50494C5.37423 6.35513 5.40404 6.24432 5.45992 6.17026C5.51448 6.09788 5.60973 6.05963 5.75429 6.05963C5.85592 6.05963 5.92604 6.08476 5.97085 6.13144C6.0166 6.17832 6.04117 6.25088 6.04117 6.35363V7.17769C6.04117 7.18462 6.04391 7.19127 6.04879 7.19619C6.05367 7.20111 6.0603 7.2039 6.06723 7.20394H6.26917C6.2761 7.2039 6.28273 7.20111 6.28761 7.19619C6.29249 7.19127 6.29523 7.18462 6.29523 7.17769V6.34088C6.29523 6.17176 6.25267 6.04369 6.1636 5.96288C6.07529 5.88226 5.94685 5.84363 5.78279 5.84363ZM8.69448 5.84607C8.56173 5.84594 8.44623 5.87319 8.34798 5.92782C8.25067 5.98182 8.17548 6.06169 8.12317 6.16501C8.07067 6.26794 8.04517 6.39188 8.04517 6.53551C8.04504 6.64351 8.06035 6.74057 8.0911 6.82669C8.1226 6.91257 8.16673 6.98569 8.22348 7.04569C8.28123 7.10544 8.34923 7.15126 8.4271 7.18313L8.42748 7.18332C8.50623 7.21419 8.59235 7.22963 8.68585 7.22963C8.78535 7.22976 8.8751 7.21432 8.9551 7.18332C9.03585 7.15144 9.1046 7.10557 9.16135 7.04569C9.21835 6.98557 9.26179 6.91251 9.29167 6.82651C9.32142 6.74026 9.33623 6.64326 9.3361 6.53551C9.3361 6.39244 9.30985 6.26888 9.25548 6.16594C9.20562 6.06592 9.12709 5.98302 9.02992 5.92782C8.93329 5.87319 8.8216 5.84594 8.69448 5.84607ZM3.01098 5.86707C3.00405 5.86707 2.9974 5.86981 2.99248 5.87469C2.98757 5.87957 2.98478 5.8862 2.98473 5.89313V7.38526C2.98473 7.45951 2.96804 7.50488 2.94217 7.52719C2.91292 7.55232 2.87485 7.56544 2.82367 7.56544C2.79217 7.56544 2.76417 7.56326 2.73967 7.55888L2.73892 7.55869C2.71394 7.55474 2.68926 7.5491 2.66504 7.54182C2.66113 7.54065 2.65699 7.54041 2.65297 7.54113C2.64895 7.54184 2.64514 7.54348 2.64187 7.54592C2.63859 7.54836 2.63593 7.55153 2.63409 7.55518C2.63226 7.55883 2.6313 7.56286 2.63129 7.56694V7.72519C2.63135 7.73063 2.6331 7.73591 2.63629 7.74031C2.63948 7.74471 2.64396 7.74801 2.6491 7.74976C2.6736 7.75801 2.70192 7.76494 2.73404 7.77057C2.76717 7.77719 2.80529 7.78051 2.84842 7.78051C2.93523 7.78051 3.00854 7.76513 3.06779 7.73269C3.12576 7.70134 3.17196 7.65198 3.19942 7.59207C3.22754 7.53207 3.24154 7.46157 3.24142 7.38057V5.89313C3.24137 5.8862 3.23858 5.87957 3.23366 5.87469C3.22874 5.86981 3.2221 5.86707 3.21517 5.86707H3.01098ZM7.18998 6.01332C7.28335 6.01332 7.34935 6.03619 7.39342 6.07894C7.43729 6.12057 7.46054 6.18413 7.46054 6.27582C7.46054 6.36094 7.43804 6.42094 7.39492 6.46201C7.35179 6.50307 7.28579 6.52519 7.19242 6.52519C7.10242 6.52519 7.03698 6.50326 6.99198 6.46182C6.94698 6.42038 6.9241 6.36188 6.9241 6.27938C6.9241 6.18863 6.94735 6.12432 6.99142 6.08101C7.0366 6.03657 7.10092 6.01332 7.18998 6.01332ZM1.9501 6.05757C2.09523 6.05757 2.18748 6.09826 2.23848 6.17701C2.29192 6.25838 2.3206 6.37894 2.3206 6.53907V6.57432C2.3206 6.72488 2.29098 6.83494 2.23623 6.90657C2.18223 6.97669 2.08998 7.01344 1.9501 7.01344C1.82954 7.01344 1.74554 6.97463 1.68798 6.89551C1.63079 6.81563 1.60042 6.69938 1.60042 6.54488C1.60042 6.38982 1.63117 6.27019 1.68948 6.18451C1.74779 6.09882 1.83085 6.05757 1.9501 6.05757ZM8.6896 6.06226C8.7811 6.06226 8.8531 6.08176 8.90767 6.11869C8.96317 6.15619 9.00385 6.20926 9.03104 6.27994C9.05842 6.35044 9.07217 6.43582 9.07229 6.53569C9.07217 6.63632 9.05842 6.72269 9.03104 6.79482C9.00772 6.86108 8.96409 6.9183 8.90635 6.95832C8.8516 6.99638 8.78073 7.01588 8.69073 7.01588C8.60017 7.01588 8.52873 6.99619 8.47398 6.95851C8.41688 6.91805 8.37377 6.86085 8.3506 6.79482C8.3231 6.72269 8.30935 6.63632 8.30935 6.53569C8.30935 6.38307 8.34085 6.26663 8.40123 6.18432H8.40142V6.18413C8.46179 6.10313 8.5546 6.06226 8.6896 6.06226ZM4.45998 6.54788V6.63938C4.45998 6.76069 4.42454 6.84619 4.35479 6.90413C4.28354 6.96319 4.19242 6.99301 4.0771 6.99301C4.00398 6.99301 3.9481 6.97669 3.90685 6.94557C3.86692 6.91557 3.84685 6.87132 3.84685 6.80344C3.84685 6.72619 3.87592 6.67144 3.93873 6.62926C4.00023 6.58838 4.11517 6.56138 4.28129 6.55519L4.45998 6.54788ZM7.08273 7.15294H7.31673C7.38448 7.15294 7.44104 7.15751 7.48642 7.16663H7.48679C7.53067 7.17451 7.56104 7.18969 7.58092 7.21051C7.59967 7.23094 7.61092 7.26244 7.61092 7.30988C7.6119 7.35641 7.59444 7.40143 7.56235 7.43513L7.56198 7.43551C7.5301 7.47113 7.47985 7.50019 7.40917 7.52044H7.40898C7.33923 7.54144 7.24935 7.55207 7.13935 7.55232C7.02798 7.55232 6.94454 7.53376 6.88904 7.50076C6.83373 7.46832 6.80954 7.42669 6.80954 7.36482C6.80954 7.31663 6.82023 7.27857 6.84067 7.24838C6.86204 7.21763 6.89223 7.19457 6.93348 7.17807C6.97473 7.16144 7.02448 7.15307 7.08273 7.15294ZM10.4802 16.7833C10.3851 16.7831 10.3032 16.8 10.2346 16.8341C10.1654 16.8689 10.1097 16.9258 10.0764 16.9958C10.0402 17.0681 10.0231 17.1594 10.0231 17.2701V17.3357L9.80354 17.3949C9.79802 17.3965 9.79315 17.3997 9.78967 17.4043C9.78618 17.4088 9.78427 17.4143 9.78423 17.4201V17.5138C9.78428 17.5207 9.78704 17.5273 9.79192 17.5322C9.79679 17.5371 9.8034 17.5398 9.81029 17.5399H10.0231V18.6461C10.0232 18.653 10.0259 18.6596 10.0308 18.6645C10.0357 18.6694 10.0423 18.6721 10.0492 18.6722H10.2535C10.2605 18.6722 10.2672 18.6694 10.2721 18.6645C10.277 18.6596 10.2798 18.6529 10.2798 18.6459V17.5397H10.5897C10.5966 17.5396 10.6032 17.5369 10.608 17.5321C10.6129 17.5272 10.6157 17.5207 10.6158 17.5138V17.3614C10.6157 17.3545 10.613 17.3479 10.6081 17.343C10.6032 17.3381 10.5966 17.3354 10.5897 17.3353H10.2796V17.2678C10.2796 17.1684 10.2982 17.0991 10.3295 17.0586C10.3619 17.0169 10.4101 16.9959 10.4827 16.9959C10.5169 16.9959 10.5503 16.9996 10.5828 17.007H10.5834C10.6181 17.014 10.6489 17.0217 10.6756 17.0301C10.6821 17.032 10.6891 17.0314 10.6951 17.0284C10.7012 17.0253 10.7058 17.02 10.708 17.0136L10.7609 16.86C10.7631 16.8534 10.7627 16.8463 10.7596 16.8401C10.7565 16.8338 10.7512 16.8291 10.7446 16.8268C10.706 16.8143 10.6667 16.8043 10.6269 16.7968C10.5785 16.7875 10.5294 16.783 10.4802 16.7833ZM21.9378 16.7963C21.9309 16.7963 21.9242 16.799 21.9193 16.8039C21.9144 16.8088 21.9116 16.8154 21.9115 16.8223V18.6461C21.9116 18.6531 21.9144 18.6597 21.9193 18.6646C21.9242 18.6695 21.9309 18.6722 21.9378 18.6722H22.141C22.1479 18.6721 22.1545 18.6693 22.1594 18.6644C22.1642 18.6595 22.1669 18.6528 22.1669 18.6459V18.1926L22.3012 18.0754L22.7607 18.6623C22.7632 18.6654 22.7663 18.6679 22.7699 18.6696C22.7735 18.6713 22.7774 18.6722 22.7814 18.6722H23.0275C23.0324 18.6722 23.0373 18.6709 23.0414 18.6683C23.0456 18.6657 23.049 18.662 23.0511 18.6576C23.0533 18.6532 23.0541 18.6482 23.0536 18.6434C23.0531 18.6385 23.0512 18.6339 23.0482 18.63L22.4799 17.9119L23.0067 17.3798C23.0104 17.3761 23.0128 17.3714 23.0138 17.3664C23.0148 17.3613 23.0143 17.3561 23.0123 17.3513C23.0103 17.3466 23.007 17.3425 23.0027 17.3397C22.9984 17.3368 22.9933 17.3353 22.9882 17.3353H22.7482C22.7447 17.3353 22.7412 17.336 22.738 17.3374C22.7348 17.3387 22.7319 17.3407 22.7294 17.3432L22.2813 17.7979L22.2809 17.7983C22.2574 17.8231 22.2287 17.8556 22.1947 17.8956L22.1605 17.9368L22.1632 17.8856C22.1657 17.84 22.1669 17.8013 22.1669 17.7694V16.8223C22.1669 16.8154 22.1642 16.8087 22.1593 16.8038C22.1544 16.7989 22.1478 16.7961 22.1409 16.7961L21.9378 16.7963ZM16.3285 17.2875C16.2039 17.2875 16.0936 17.316 15.9997 17.3734C15.9054 17.4327 15.8302 17.5179 15.7829 17.6188C15.7324 17.7239 15.7073 17.8473 15.7075 17.9888C15.7073 18.1338 15.735 18.2575 15.7908 18.36C15.8465 18.4616 15.9252 18.54 16.0257 18.5933C16.1272 18.6454 16.2445 18.6714 16.3777 18.6713C16.4586 18.6722 16.5395 18.6653 16.6192 18.6506C16.6885 18.637 16.758 18.6154 16.8275 18.5859C16.8322 18.5839 16.8362 18.5806 16.839 18.5763C16.8419 18.5721 16.8434 18.5671 16.8434 18.5619V18.3908C16.8434 18.3865 16.8423 18.3823 16.8402 18.3786C16.8382 18.3748 16.8353 18.3716 16.8317 18.3693C16.8282 18.3669 16.8241 18.3655 16.8199 18.365C16.8157 18.3646 16.8114 18.3652 16.8074 18.3668C16.738 18.3951 16.6713 18.4166 16.6072 18.4311C16.5346 18.4463 16.4605 18.4536 16.3863 18.4526C16.2526 18.4526 16.1532 18.4155 16.0825 18.3422C16.0163 18.2741 15.98 18.1739 15.9738 18.0418H16.8775C16.8845 18.0418 16.8912 18.0391 16.8961 18.0341C16.901 18.0292 16.9038 18.0225 16.9038 18.0156V17.895C16.9038 17.7751 16.8811 17.6696 16.8357 17.5785C16.7921 17.489 16.723 17.4143 16.6372 17.3638C16.5505 17.3128 16.447 17.2875 16.3285 17.2875ZM19.8534 17.2875C19.7206 17.2874 19.6051 17.3147 19.5069 17.3694C19.4093 17.4236 19.3307 17.5064 19.2819 17.6066C19.2299 17.7098 19.2039 17.8333 19.204 17.9771C19.204 18.0851 19.2194 18.1822 19.25 18.2683C19.2815 18.3541 19.3256 18.4272 19.3824 18.4873H19.3825C19.4403 18.5469 19.5081 18.5928 19.586 18.6248H19.5864C19.6652 18.6558 19.7514 18.6713 19.8447 18.6713C19.9442 18.6713 20.034 18.6558 20.114 18.6249C20.1947 18.5931 20.2635 18.5472 20.3204 18.4873C20.3774 18.4273 20.4208 18.3542 20.4505 18.2679C20.4816 18.1742 20.4967 18.0759 20.4952 17.9771C20.4953 17.8339 20.4684 17.7107 20.4145 17.6076C20.3646 17.5075 20.286 17.4246 20.1888 17.3694C20.0926 17.3147 19.9801 17.2875 19.8534 17.2875ZM12.5227 17.2899C12.4334 17.2899 12.3482 17.3008 12.2671 17.3224C12.1934 17.3414 12.1217 17.3675 12.053 17.4004C12.047 17.4034 12.0424 17.4085 12.0401 17.4148C12.0378 17.4211 12.038 17.428 12.0406 17.4341L12.1034 17.5817C12.1048 17.5849 12.1068 17.5878 12.1093 17.5902C12.1118 17.5926 12.1148 17.5945 12.118 17.5957C12.1213 17.597 12.1247 17.5976 12.1282 17.5975C12.1317 17.5974 12.1351 17.5966 12.1383 17.5952C12.1945 17.5689 12.2542 17.5463 12.3172 17.5271C12.3785 17.5084 12.4433 17.499 12.5114 17.499C12.5984 17.499 12.6618 17.52 12.706 17.5594C12.748 17.5969 12.7724 17.6661 12.7724 17.7731V17.8266L12.5647 17.835C12.3438 17.8412 12.1771 17.8787 12.0639 17.9516C11.951 18.0244 11.8919 18.1335 11.8919 18.2689C11.8919 18.3578 11.9107 18.4335 11.9502 18.4939L11.9504 18.4943C11.9904 18.5541 12.0443 18.5987 12.112 18.6279C12.1799 18.6568 12.2564 18.6712 12.3415 18.6711C12.4212 18.6712 12.4893 18.6631 12.5459 18.6467C12.603 18.6294 12.6535 18.6042 12.6972 18.5709L12.6974 18.5708C12.7306 18.5449 12.7614 18.5108 12.7921 18.4761L12.8234 18.627C12.8247 18.6328 12.8279 18.638 12.8325 18.6418C12.8372 18.6455 12.843 18.6476 12.8489 18.6476H12.998C13.0048 18.6475 13.0113 18.6448 13.0162 18.6399C13.021 18.6351 13.0238 18.6286 13.0239 18.6218V17.7484C13.0239 17.5931 12.9832 17.4746 12.8982 17.3996C12.8135 17.325 12.6873 17.2899 12.5227 17.2899ZM11.5546 17.3115C11.4872 17.3115 11.4254 17.324 11.3692 17.349C11.3147 17.3738 11.2665 17.4071 11.2248 17.4491C11.1972 17.4765 11.1764 17.5088 11.1543 17.5401L11.1374 17.3586C11.1368 17.3521 11.1337 17.3461 11.1289 17.3417C11.1241 17.3374 11.1179 17.335 11.1114 17.3349H10.9415C10.9345 17.3349 10.9278 17.3377 10.9229 17.3426C10.918 17.3476 10.9152 17.3542 10.9152 17.3612V18.6456C10.9152 18.6525 10.918 18.6592 10.9229 18.6641C10.9278 18.6691 10.9345 18.6718 10.9415 18.6718H11.147C11.1539 18.6718 11.1606 18.6691 11.1655 18.6641C11.1705 18.6592 11.1732 18.6525 11.1732 18.6456V17.9569C11.1732 17.8933 11.1829 17.8362 11.2023 17.7857C11.22 17.7373 11.247 17.6928 11.2818 17.6548L11.282 17.6544C11.3156 17.6182 11.3545 17.5906 11.3986 17.5718H11.3988C11.4438 17.552 11.4917 17.5421 11.5424 17.5421C11.5909 17.5423 11.6392 17.5479 11.6864 17.559C11.6899 17.5598 11.6936 17.5599 11.6971 17.5592C11.7007 17.5586 11.7041 17.5572 11.7071 17.5552C11.7101 17.5532 11.7126 17.5505 11.7145 17.5475C11.7165 17.5444 11.7177 17.541 11.7183 17.5374L11.7444 17.3569C11.7453 17.3503 11.7436 17.3436 11.7398 17.3382C11.736 17.3328 11.7302 17.329 11.7237 17.3276C11.6966 17.3225 11.6693 17.3189 11.6418 17.3168C11.6128 17.3138 11.5837 17.3122 11.5546 17.3119M14.0431 17.3119C13.9832 17.3119 13.9265 17.3201 13.873 17.3364C13.8207 17.3525 13.7713 17.3772 13.7272 17.4096C13.6968 17.4329 13.6697 17.4603 13.6469 17.4911L13.6244 17.3571C13.6234 17.351 13.6202 17.3455 13.6154 17.3415C13.6107 17.3375 13.6047 17.3353 13.5985 17.3353H13.4335C13.4266 17.3354 13.42 17.3382 13.4151 17.3431C13.4102 17.348 13.4075 17.3546 13.4075 17.3616V18.6459C13.4075 18.6529 13.4102 18.6596 13.4152 18.6645C13.4201 18.6694 13.4268 18.6722 13.4337 18.6722H13.6381C13.645 18.6721 13.6516 18.6693 13.6564 18.6644C13.6613 18.6595 13.664 18.6528 13.664 18.6459V17.9663C13.6642 17.8675 13.6757 17.7856 13.6983 17.7206C13.7214 17.6556 13.757 17.6085 13.8061 17.5766C13.8549 17.5451 13.9214 17.5281 14.0075 17.5281C14.0675 17.5281 14.1149 17.5393 14.1509 17.5599L14.1515 17.5601C14.1884 17.5802 14.2152 17.6094 14.2336 17.6509L14.2338 17.6513C14.2533 17.6928 14.2632 17.7469 14.2634 17.8138V18.6461C14.2635 18.653 14.2662 18.6596 14.2711 18.6645C14.276 18.6694 14.2826 18.6721 14.2895 18.6722H14.4927C14.4996 18.6721 14.5062 18.6693 14.5111 18.6644C14.5159 18.6595 14.5186 18.6528 14.5186 18.6459V17.9274C14.5186 17.7913 14.5475 17.6919 14.6015 17.6265C14.6545 17.5618 14.74 17.5281 14.8659 17.5281C14.9536 17.5281 15.0145 17.5521 15.0558 17.598L15.056 17.5982C15.0978 17.6434 15.1205 17.7139 15.1205 17.8138V18.6461C15.1205 18.6531 15.1233 18.6597 15.1282 18.6646C15.1332 18.6695 15.1398 18.6722 15.1467 18.6722H15.3485C15.3554 18.6722 15.3621 18.6694 15.367 18.6645C15.372 18.6596 15.3747 18.6529 15.3747 18.6459V17.8044C15.3747 17.6372 15.3359 17.511 15.2534 17.4308C15.1719 17.3505 15.052 17.3119 14.899 17.3119C14.8037 17.3119 14.7155 17.3311 14.6345 17.3694H14.6343C14.5617 17.4032 14.5045 17.4563 14.4594 17.5221C14.4276 17.4572 14.3763 17.404 14.3125 17.37C14.2388 17.331 14.149 17.3116 14.0431 17.3119ZM21.4216 17.3119C21.3542 17.3119 21.2924 17.3244 21.2362 17.3494C21.1817 17.3741 21.1335 17.4075 21.0918 17.4495C21.0642 17.4769 21.0434 17.5091 21.0213 17.5404L21.0044 17.3589C21.0038 17.3525 21.0007 17.3465 20.9959 17.3421C20.9911 17.3378 20.9849 17.3353 20.9784 17.3353H20.8085C20.8015 17.3353 20.7948 17.3381 20.7899 17.343C20.785 17.3479 20.7822 17.3546 20.7822 17.3616V18.6459C20.7822 18.6529 20.785 18.6596 20.7899 18.6645C20.7948 18.6694 20.8015 18.6722 20.8085 18.6722H21.014C21.0209 18.6722 21.0276 18.6694 21.0325 18.6645C21.0375 18.6596 21.0402 18.6529 21.0402 18.6459V17.9569C21.0402 17.8933 21.0499 17.8362 21.0693 17.7857C21.0888 17.7337 21.1153 17.6901 21.1488 17.6548V17.6544C21.1814 17.6188 21.2212 17.5907 21.2656 17.5718C21.3106 17.552 21.3587 17.5421 21.4094 17.5421C21.4579 17.5423 21.5062 17.5479 21.5534 17.559C21.5569 17.5598 21.5606 17.5599 21.5641 17.5592C21.5677 17.5586 21.5711 17.5572 21.5741 17.5552C21.577 17.5532 21.5796 17.5505 21.5815 17.5475C21.5835 17.5444 21.5847 17.541 21.5853 17.5374L21.6114 17.3569C21.6123 17.3503 21.6106 17.3436 21.6068 17.3382C21.603 17.3328 21.5972 17.329 21.5907 17.3276C21.5636 17.3225 21.5363 17.3189 21.5088 17.3168C21.4798 17.3138 21.4507 17.3122 21.4216 17.3119ZM17.1192 17.3355C17.1152 17.3356 17.1113 17.3365 17.1077 17.3384C17.1041 17.3402 17.101 17.3428 17.0986 17.346C17.0962 17.3492 17.0946 17.3529 17.0938 17.3568C17.0931 17.3608 17.0932 17.3648 17.0943 17.3687L17.4663 18.6534C17.4679 18.6588 17.4712 18.6636 17.4757 18.6669C17.4802 18.6703 17.4856 18.6721 17.4912 18.6722H17.7215C17.7269 18.6722 17.7322 18.6705 17.7367 18.6673C17.7411 18.6642 17.7444 18.6597 17.7462 18.6546L17.9973 17.9106C18.0087 17.8788 18.0191 17.8466 18.0286 17.8142C18.0376 17.7822 18.0458 17.7515 18.0532 17.7225L18.0534 17.7219C18.059 17.7024 18.0631 17.6854 18.0676 17.6679C18.0721 17.6854 18.0768 17.7023 18.0817 17.7219L18.082 17.7227L18.1079 17.8118L18.1081 17.8125L18.1389 17.9064L18.3789 18.6542C18.3806 18.6594 18.3839 18.664 18.3884 18.6672C18.3929 18.6705 18.3983 18.6722 18.4038 18.6722H18.6414C18.647 18.6722 18.6525 18.6704 18.657 18.667C18.6616 18.6636 18.6649 18.6589 18.6665 18.6534L19.0396 17.3687C19.0407 17.3648 19.0408 17.3608 19.0401 17.3568C19.0393 17.3529 19.0377 17.3492 19.0353 17.346C19.0329 17.3428 19.0298 17.3402 19.0262 17.3384C19.0226 17.3365 19.0187 17.3356 19.0147 17.3355H18.8065C18.8009 17.3355 18.7954 17.3374 18.7908 17.3408C18.7863 17.3442 18.783 17.349 18.7814 17.3544L18.5845 18.0638H18.5844L18.5461 18.207V18.2074C18.5349 18.2528 18.5249 18.2945 18.5161 18.3326C18.5059 18.2931 18.4949 18.2538 18.4831 18.2147L18.4829 18.2143C18.4717 18.1748 18.4597 18.1356 18.4469 18.0966L18.2069 17.3535C18.2052 17.3483 18.2019 17.3438 18.1974 17.3405C18.193 17.3373 18.1877 17.3355 18.1822 17.3355H17.9617C17.9562 17.3355 17.9509 17.3373 17.9464 17.3405C17.942 17.3436 17.9387 17.3481 17.9369 17.3533L17.6883 18.0977C17.6789 18.1252 17.6698 18.1548 17.6609 18.1864C17.6518 18.2171 17.643 18.2483 17.6347 18.2798V18.2801L17.6202 18.3401L17.6189 18.3334C17.6105 18.2924 17.6002 18.2492 17.588 18.2038L17.5878 18.2033C17.5761 18.1566 17.5638 18.1101 17.5509 18.0638L17.3562 17.3546C17.3547 17.3491 17.3514 17.3443 17.3469 17.3409C17.3423 17.3374 17.3368 17.3355 17.3311 17.3355H17.1192ZM16.3261 17.4994C16.3996 17.4994 16.4574 17.5149 16.5012 17.5444H16.5014C16.5464 17.5736 16.5792 17.6141 16.6012 17.6683L16.6014 17.6689C16.6214 17.7159 16.6317 17.772 16.6351 17.8341H15.9819C15.9969 17.7321 16.0293 17.6503 16.0839 17.5933C16.1437 17.5305 16.2222 17.4994 16.3261 17.4994ZM19.8485 17.5043C19.94 17.5043 20.012 17.5238 20.0665 17.5607C20.1219 17.5982 20.1627 17.6513 20.1897 17.7219C20.2172 17.7924 20.231 17.8777 20.2312 17.9777C20.231 18.0783 20.2173 18.1647 20.1899 18.2368C20.1666 18.3031 20.123 18.3603 20.0652 18.4003C20.0103 18.4382 19.9394 18.4579 19.8496 18.4579C19.759 18.4579 19.6876 18.4382 19.6329 18.4003C19.5758 18.3599 19.5327 18.3028 19.5095 18.2368C19.482 18.1647 19.4682 18.0783 19.468 17.9777C19.468 17.8251 19.4997 17.7086 19.5601 17.6263L19.5603 17.6261C19.6207 17.5451 19.7135 17.5043 19.8485 17.5043ZM12.7702 18.0163V18.1076C12.7702 18.2291 12.7347 18.3146 12.665 18.3724C12.5937 18.4314 12.5026 18.4614 12.3873 18.4614C12.3142 18.4614 12.2583 18.4449 12.217 18.414C12.1771 18.384 12.157 18.3398 12.157 18.2719C12.157 18.1944 12.1861 18.1397 12.2489 18.0975C12.3104 18.0566 12.4254 18.0298 12.5915 18.0236L12.7702 18.0163Z" fill="#212121"/>
</g>
<defs>
<clipPath id="clip0_2281_5361">
<rect width="24" height="24" fill="white" transform="translate(0.0803223)"/>
</clipPath>
</defs>
</svg>
