<svg width="25" height="24" viewBox="0 0 25 24" fill="none" xmlns="http://www.w3.org/2000/svg">
<g clip-path="url(#clip0_2281_5331)">
<path d="M0.0388184 0H24.0388V24H0.0388184V0Z" fill="#F7DF1E"/>
<path d="M6.34934 20.0561L8.1859 18.9446C8.54027 19.5728 8.86259 20.1044 9.63574 20.1044C10.3768 20.1044 10.8442 19.8145 10.8442 18.6869V11.0183H13.0995V18.7188C13.0995 21.0548 11.7302 22.1181 9.7324 22.1181C7.92818 22.1181 6.8809 21.1837 6.34924 20.0559M14.3246 19.8144L16.1609 18.7512C16.6444 19.5407 17.2727 20.1206 18.3842 20.1206C19.3188 20.1206 19.9147 19.6534 19.9147 19.0089C19.9147 18.2357 19.3025 17.9617 18.2714 17.5108L17.7077 17.2689C16.0805 16.5764 15.0012 15.7064 15.0012 13.8698C15.0012 12.1782 16.2899 10.8893 18.3038 10.8893C19.7376 10.8893 20.7686 11.3888 21.5096 12.6937L19.7535 13.8216C19.3668 13.1288 18.9481 12.855 18.3037 12.855C17.6431 12.855 17.2242 13.2739 17.2242 13.8216C17.2242 14.4982 17.6431 14.7722 18.6097 15.1911L19.1735 15.4327C21.0907 16.2544 22.17 17.092 22.17 18.9768C22.17 21.0068 20.5751 22.1183 18.4325 22.1183C16.3382 22.1183 14.9849 21.1195 14.3245 19.8145" fill="black"/>
</g>
<defs>
<clipPath id="clip0_2281_5331">
<rect width="24" height="24" fill="white" transform="translate(0.0388184)"/>
</clipPath>
</defs>
</svg>
