<svg width="26" height="24" viewBox="0 0 26 24" fill="none" xmlns="http://www.w3.org/2000/svg">
<g clip-path="url(#clip0_2281_5341)">
<path d="M12.9313 0.0067749C6.82943 0.0067749 7.21042 2.65289 7.21042 2.65289L7.2172 5.39435H13.0401V6.21741H4.90444C4.90444 6.21741 0.999878 5.77459 0.999878 11.9313C0.999878 18.0882 4.40788 17.8698 4.40788 17.8698H6.44176V15.0128C6.44176 15.0128 6.33211 11.6048 9.79536 11.6048H15.5706C15.5706 11.6048 18.8153 11.6572 18.8153 8.46889V3.19718C18.8153 3.19718 19.3081 0.0067749 12.9313 0.0067749ZM9.72054 1.85035C9.85814 1.85023 9.99441 1.87724 10.1216 1.92984C10.2487 1.98244 10.3642 2.05959 10.4615 2.15689C10.5588 2.25419 10.636 2.36971 10.6886 2.49686C10.7412 2.62401 10.7682 2.76028 10.7681 2.89788C10.7682 3.03548 10.7412 3.17175 10.6886 3.2989C10.636 3.42605 10.5588 3.54158 10.4615 3.63887C10.3642 3.73617 10.2487 3.81332 10.1216 3.86592C9.99441 3.91852 9.85814 3.94553 9.72054 3.94541C9.58294 3.94553 9.44667 3.91852 9.31952 3.86592C9.19237 3.81332 9.07684 3.73617 8.97955 3.63887C8.88225 3.54158 8.80509 3.42605 8.75249 3.2989C8.69989 3.17175 8.67288 3.03548 8.67301 2.89788C8.67288 2.76028 8.69989 2.62401 8.75249 2.49686C8.80509 2.36971 8.88225 2.25419 8.97955 2.15689C9.07684 2.05959 9.19237 1.98244 9.31952 1.92984C9.44667 1.87724 9.58294 1.85023 9.72054 1.85035Z" fill="url(#paint0_linear_2281_5341)"/>
<path d="M13.1045 23.9178C19.2064 23.9178 18.8254 21.2717 18.8254 21.2717L18.8186 18.5303H12.9956V17.7072H21.1312C21.1312 17.7072 25.0358 18.1501 25.0358 11.9932C25.0358 5.83638 21.6278 6.05473 21.6278 6.05473H19.5939V8.91167C19.5939 8.91167 19.7036 12.3197 16.2403 12.3197H10.4651C10.4651 12.3197 7.22037 12.2672 7.22037 15.4557V20.7275C7.22037 20.7275 6.72767 23.9178 13.1044 23.9178M16.3152 22.0744C16.1776 22.0745 16.0413 22.0475 15.9141 21.9949C15.787 21.9423 15.6715 21.8652 15.5742 21.7679C15.4769 21.6706 15.3997 21.555 15.3471 21.4279C15.2945 21.3007 15.2675 21.1645 15.2676 21.0269C15.2675 20.8893 15.2945 20.753 15.3471 20.6258C15.3997 20.4987 15.4768 20.3831 15.5741 20.2858C15.6714 20.1885 15.787 20.1113 15.9141 20.0587C16.0413 20.0061 16.1775 19.9791 16.3152 19.9792C16.4527 19.9791 16.589 20.0061 16.7162 20.0587C16.8433 20.1113 16.9588 20.1885 17.0561 20.2858C17.1534 20.3831 17.2306 20.4986 17.2832 20.6258C17.3358 20.7529 17.3628 20.8892 17.3627 21.0268C17.3628 21.1644 17.3358 21.3006 17.2832 21.4278C17.2306 21.5549 17.1534 21.6705 17.0561 21.7678C16.9588 21.8651 16.8433 21.9422 16.7162 21.9948C16.589 22.0474 16.4527 22.0745 16.3152 22.0744Z" fill="url(#paint1_linear_2281_5341)"/>
</g>
<defs>
<linearGradient id="paint0_linear_2281_5341" x1="231.985" y1="215.072" x2="1423.13" y2="1394.34" gradientUnits="userSpaceOnUse">
<stop stop-color="#387EB8"/>
<stop offset="1" stop-color="#366994"/>
</linearGradient>
<linearGradient id="paint1_linear_2281_5341" x1="348.154" y1="373.677" x2="1627.31" y2="1582.91" gradientUnits="userSpaceOnUse">
<stop stop-color="#FFE052"/>
<stop offset="1" stop-color="#FFC331"/>
</linearGradient>
<clipPath id="clip0_2281_5341">
<rect width="24.0941" height="24" fill="white" transform="translate(0.986206)"/>
</clipPath>
</defs>
</svg>
