<svg width="27" height="24" viewBox="0 0 27 24" fill="none" xmlns="http://www.w3.org/2000/svg">
<g clip-path="url(#clip0_2281_5302)">
<path d="M22.1949 7.77093C21.9081 7.67256 21.6189 7.58141 21.3276 7.49756C21.3765 7.29756 21.4216 7.09998 21.4616 6.90588C22.1182 3.7184 21.6889 1.15051 20.2227 0.305034C18.8169 -0.505492 16.5179 0.339666 14.196 2.3604C13.9671 2.5599 13.7434 2.76516 13.5249 2.97598C13.3787 2.8358 13.2298 2.69834 13.0785 2.56367C10.645 0.403034 8.20587 -0.507597 6.74124 0.340297C5.33671 1.15335 4.92082 3.56735 5.51198 6.58819C5.57079 6.88737 5.6372 7.18501 5.71113 7.48082C5.36587 7.57893 5.03271 7.68335 4.71387 7.79451C1.86082 8.78924 0.0388184 10.3481 0.0388184 11.965C0.0388184 13.635 1.99482 15.3101 4.9664 16.3258C5.20732 16.4078 5.45023 16.4837 5.69492 16.5537C5.61548 16.8723 5.54493 17.193 5.48334 17.5156C4.91977 20.484 5.35987 22.8409 6.76061 23.6488C8.20734 24.4831 10.6356 23.6257 12.9999 21.5588C13.1916 21.3908 13.3791 21.218 13.5622 21.0406C13.7988 21.2689 14.0417 21.4905 14.2906 21.7052C16.5809 23.676 18.8428 24.4718 20.2422 23.6617C21.6876 22.8249 22.1573 20.2929 21.5475 17.2124C21.4994 16.9711 21.4455 16.7309 21.3859 16.4922C21.5564 16.4417 21.7238 16.3897 21.8869 16.3356C24.9762 15.3121 26.9862 13.6573 26.9862 11.965C26.9862 10.3422 25.1053 8.77282 22.1949 7.77093ZM21.5249 15.2429C21.3774 15.2916 21.2265 15.3388 21.0723 15.3845C20.7312 14.3048 20.271 13.1568 19.7078 11.9706C20.2452 10.8127 20.6878 9.67935 21.0192 8.60672C21.2949 8.68651 21.5624 8.77061 21.8203 8.85935C24.314 9.71788 25.835 10.987 25.835 11.965C25.835 13.0067 24.1923 14.359 21.5249 15.2429ZM20.4182 17.436C20.6879 18.7981 20.7263 20.0297 20.5477 20.9925C20.3872 21.8577 20.0645 22.4344 19.6653 22.6655C18.8162 23.157 17.0001 22.5181 15.0414 20.8326C14.8099 20.633 14.584 20.4269 14.3639 20.2147C15.1232 19.3843 15.8821 18.4189 16.6227 17.3467C17.9254 17.2311 19.1562 17.0421 20.2723 16.7841C20.3274 17.006 20.376 17.2233 20.4182 17.436ZM9.22577 22.5805C8.39608 22.8735 7.73524 22.8819 7.33577 22.6516C6.48577 22.1614 6.1324 20.2688 6.6144 17.7303C6.6717 17.4303 6.7373 17.132 6.81113 16.8357C7.91492 17.0799 9.13671 17.2555 10.4425 17.3614C11.1882 18.4105 11.9689 19.3748 12.7558 20.2192C12.5885 20.381 12.4174 20.5387 12.2424 20.6921C11.1968 21.606 10.1491 22.2544 9.22577 22.5805ZM5.33882 15.2365C4.02482 14.7874 2.93966 14.2037 2.19587 13.5667C1.52745 12.9944 1.19008 12.4261 1.19008 11.965C1.19008 10.9838 2.65292 9.73219 5.09282 8.88156C5.38892 8.7784 5.69882 8.68103 6.0204 8.58967C6.35766 9.68651 6.79998 10.8333 7.33377 11.993C6.79303 13.1699 6.3444 14.335 6.00387 15.4448C5.78052 15.3808 5.55877 15.3114 5.33882 15.2365ZM6.64177 6.36703C6.13534 3.77893 6.47166 1.82661 7.31808 1.33661C8.21956 0.814718 10.213 1.55882 12.3142 3.42451C12.4512 3.54644 12.586 3.67084 12.7185 3.79767C11.9356 4.6384 11.162 5.59556 10.4229 6.63851C9.15556 6.75598 7.9424 6.94461 6.82703 7.19735C6.75829 6.92222 6.69652 6.64529 6.64177 6.36703ZM18.2657 9.23745C18.0022 8.7824 17.729 8.33307 17.4462 7.88977C18.306 7.99851 19.1298 8.14282 19.9033 8.31924C19.6711 9.06367 19.3817 9.84188 19.0409 10.6398C18.7919 10.1672 18.5334 9.69968 18.2657 9.23745ZM13.5255 4.62051C14.0564 5.19577 14.5882 5.83798 15.1112 6.53482C14.0502 6.48471 12.9874 6.4845 11.9263 6.53419C12.4499 5.84377 12.9862 5.2024 13.5255 4.62051ZM8.75482 9.24524C8.49043 9.70375 8.23678 10.1684 7.99408 10.6387C7.65892 9.84367 7.37208 9.06188 7.13787 8.30693C7.90671 8.13493 8.72661 7.9943 9.58092 7.88756C9.29498 8.33357 9.01954 8.78632 8.75482 9.24524ZM9.60545 16.1243C8.72282 16.0258 7.89061 15.8924 7.12198 15.725C7.35987 14.9566 7.65303 14.1582 7.99545 13.3461C8.23911 13.8168 8.49381 14.2817 8.75934 14.7404C9.0324 15.212 9.31513 15.6739 9.60545 16.1243ZM13.5572 19.3906C13.0116 18.802 12.4673 18.1507 11.9359 17.4503C12.4519 17.4705 12.9779 17.4808 13.5125 17.4808C14.0618 17.4808 14.6047 17.4685 15.1391 17.4447C14.6144 18.1578 14.0846 18.81 13.5572 19.3906ZM19.0518 13.3046C19.412 14.1257 19.7156 14.9199 19.9566 15.6751C19.1753 15.8535 18.3318 15.997 17.4429 16.1037C17.7278 15.6522 18.0036 15.195 18.2702 14.7325C18.5413 14.2624 18.8019 13.7863 19.0518 13.3046ZM17.273 14.1574C16.8648 14.8664 16.4337 15.5621 15.9803 16.2431C15.159 16.3013 14.3359 16.3302 13.5125 16.3298C12.6739 16.3298 11.8582 16.3037 11.0727 16.2527C10.6075 15.5732 10.1681 14.8764 9.75556 14.1637C9.34491 13.4547 8.96147 12.7305 8.60587 11.9924C8.96058 11.2542 9.34296 10.5295 9.75219 9.82009L9.75208 9.82019C10.1611 9.11051 10.597 8.41664 11.0587 7.74009C11.8601 7.67946 12.6819 7.64788 13.5124 7.64788C14.3467 7.64788 15.1697 7.67977 15.9708 7.74082C16.4279 8.41637 16.861 9.10785 17.2692 9.81398C17.6798 10.5219 18.0672 11.243 18.4309 11.9761C18.0709 12.7167 17.6847 13.4442 17.273 14.1574ZM19.6478 1.30219C20.5501 1.82261 20.901 3.92124 20.3341 6.67335C20.2977 6.84907 20.2574 7.02767 20.213 7.20914C19.0949 6.95103 17.8809 6.75914 16.6099 6.63988C15.8695 5.58546 15.1022 4.62682 14.332 3.79693C14.5338 3.60236 14.7405 3.41283 14.9518 3.22851C16.9412 1.49724 18.8006 0.813666 19.6478 1.30219ZM13.5125 9.55872C14.8415 9.55872 15.9188 10.6361 15.9188 11.965C15.9188 13.294 14.8415 14.3714 13.5125 14.3714C12.1836 14.3714 11.1062 13.294 11.1062 11.965C11.1062 10.6361 12.1836 9.55872 13.5125 9.55872Z" fill="#00D8FF"/>
</g>
<defs>
<clipPath id="clip0_2281_5302">
<rect width="26.9474" height="24" fill="white" transform="translate(0.0388184)"/>
</clipPath>
</defs>
</svg>
