<svg width="25" height="24" viewBox="0 0 25 24" fill="none" xmlns="http://www.w3.org/2000/svg">
<g clip-path="url(#clip0_2281_5336)">
<path d="M4.28943 8.8125H22.9776V22.6256H4.28943V8.8125Z" fill="white"/>
<path d="M0.320068 11.9831V23.7018H23.7576V0.264343H0.320068V11.9831ZM19.2069 11.0456C19.7683 11.1759 20.2785 11.4695 20.6732 11.8893C20.8905 12.1156 21.0793 12.3674 21.2357 12.6393C21.2357 12.6693 20.2232 13.3537 19.6063 13.7362C19.5838 13.7512 19.4938 13.6537 19.3944 13.5056C19.2818 13.3113 19.1218 13.1487 18.9294 13.0329C18.7369 12.9172 18.5182 12.8521 18.2938 12.8437C17.5832 12.795 17.1257 13.1681 17.1294 13.7812C17.1237 13.9339 17.1587 14.0853 17.2307 14.22C17.3863 14.5443 17.6769 14.7375 18.5882 15.1312C20.2663 15.8531 20.9844 16.3293 21.4307 17.0062C21.9294 17.7562 22.0401 18.9675 21.7026 19.8637C21.3276 20.8387 20.4088 21.5006 19.1094 21.72C18.516 21.788 17.9163 21.7817 17.3244 21.7012C16.4173 21.5517 15.5816 21.1161 14.9394 20.4581C14.7238 20.22 14.3038 19.5993 14.3301 19.5543C14.3984 19.5033 14.4705 19.4576 14.5457 19.4175L15.4138 18.9375L16.0869 18.5475L16.2276 18.7556C16.465 19.095 16.767 19.3843 17.1163 19.6068C17.8663 20.0006 18.8901 19.9462 19.3963 19.4906C19.5663 19.3236 19.6723 19.1024 19.696 18.8653C19.7196 18.6282 19.6594 18.3903 19.5257 18.1931C19.3382 17.9325 18.9632 17.7131 17.9151 17.2556C16.7057 16.7343 16.1844 16.4118 15.7082 15.8981C15.411 15.559 15.1915 15.159 15.0651 14.7262C14.9709 14.2317 14.9569 13.7252 15.0238 13.2262C15.2732 12.0581 16.1488 11.2425 17.4276 11.0006C18.0198 10.9274 18.6196 10.9439 19.2069 11.0493V11.0456ZM13.7057 12.0281V12.9881H10.6626V21.6562H8.50444V12.9862H5.45382V12.0487C5.44425 11.7254 5.45176 11.4018 5.47632 11.0793C5.49132 11.0625 7.35132 11.0625 9.60132 11.0625H13.6944L13.7057 12.0281Z" fill="#007ACC"/>
</g>
<defs>
<clipPath id="clip0_2281_5336">
<rect width="24" height="24" fill="white" transform="translate(0.0388184)"/>
</clipPath>
</defs>
</svg>
