<svg width="25" height="24" viewBox="0 0 25 24" fill="none" xmlns="http://www.w3.org/2000/svg">
<g clip-path="url(#clip0_2281_5346)">
<path fill-rule="evenodd" clip-rule="evenodd" d="M0.0803224 12C0.0799349 14.2534 0.714062 16.4615 1.91011 18.3713C3.10617 20.2811 4.8158 21.8156 6.84332 22.799L1.11932 7.11601C0.434499 8.65284 0.0805061 10.3165 0.0803224 11.999M20.1803 11.394C20.1803 9.91101 19.6473 8.88401 19.1903 8.08501C18.5833 7.09501 18.0123 6.25901 18.0123 5.27001C18.0123 4.16701 18.8483 3.14001 20.0273 3.14001C20.0803 3.14001 20.1313 3.14701 20.1823 3.15001C17.9729 1.12014 15.0807 -0.00432573 12.0803 1.25062e-05C7.88732 1.25062e-05 4.20032 2.15101 2.05332 5.40801C2.33532 5.41801 2.60132 5.42201 2.82632 5.42201C4.08132 5.42201 6.02432 5.27001 6.02432 5.27001C6.67032 5.23201 6.74732 6.18301 6.10032 6.25901C6.10032 6.25901 5.45032 6.33501 4.72732 6.37301L9.09732 19.371L11.7233 11.495L9.85432 6.37401C9.43331 6.34777 9.01313 6.30942 8.59432 6.25901C7.94832 6.22101 8.02432 5.23201 8.67132 5.27001C8.67132 5.27001 10.6533 5.42301 11.8313 5.42301C13.0873 5.42301 15.0303 5.27001 15.0303 5.27001C15.6773 5.23201 15.7533 6.18301 15.1063 6.25901C15.1063 6.25901 14.4563 6.33501 13.7333 6.37301L18.0703 19.272L19.2673 15.273C19.7853 13.613 20.1803 12.421 20.1803 11.394ZM12.2903 13.049L8.69032 23.51C11.1075 24.2218 13.6874 24.1546 16.0643 23.318C16.0309 23.2658 16.0025 23.2105 15.9793 23.153L12.2903 13.049ZM22.6103 6.24201C22.6623 6.62401 22.689 7.03535 22.6903 7.47601C22.6903 8.69301 22.4623 10.062 21.7783 11.774L18.1123 22.371C19.9282 21.3163 21.4351 19.8033 22.4825 17.9832C23.5299 16.1631 24.0808 14.0999 24.0803 12C24.0803 9.91401 23.5473 7.95201 22.6103 6.24201Z" fill="black"/>
</g>
<defs>
<clipPath id="clip0_2281_5346">
<rect width="24" height="24" fill="white" transform="translate(0.0803223)"/>
</clipPath>
</defs>
</svg>
