<svg width="33" height="30" viewBox="0 0 33 30" fill="none" xmlns="http://www.w3.org/2000/svg">
<g clip-path="url(#clip0_2339_6424)">
<path d="M32.8945 27.2258V2.77194C32.8919 1.30308 31.7041 0.112101 30.2355 0.105469L3.63839 0.105469C2.16895 0.112218 0.980638 1.30401 0.978544 2.77345V27.2273C0.980755 28.6966 2.16918 29.8883 3.63839 29.8946L4.87894 29.8946C6.47545 29.8499 9.79984 29.8052 11.3069 29.8052C12.1493 29.8052 12.8586 29.1829 12.8586 28.3826C12.8586 27.493 12.3264 26.9153 11.8837 26.471C10.6862 25.137 10.4644 23.136 10.7747 21.4015C10.9527 20.6021 11.1736 19.8457 11.5725 19.2242C12.6815 17.3118 14.7645 16.0672 16.9808 16.0672C19.1971 16.0672 21.2362 17.3118 22.3891 19.2234C22.788 19.8904 23.0098 20.6468 23.1869 21.4023C23.4972 23.0922 23.2763 25.137 22.0788 26.471C21.6352 26.9601 21.1039 27.5377 21.1039 28.3826C21.1039 29.1829 21.8131 29.8052 22.6556 29.8052C24.1179 29.8052 27.487 29.8499 29.0827 29.8946H30.2355C31.6978 29.8946 32.8945 28.6938 32.8945 27.2266V27.2258Z" fill="black"/>
</g>
<defs>
<clipPath id="clip0_2339_6424">
<rect width="29.7891" height="32" fill="white" transform="matrix(0 1 -1 0 32.8945 0.105469)"/>
</clipPath>
</defs>
</svg>
