<svg width="18" height="24" viewBox="0 0 18 24" fill="none" xmlns="http://www.w3.org/2000/svg">
<g clip-path="url(#clip0_2281_5323)">
<path d="M8.51869 23.9394L1.59246 22.0166L0.0489502 4.70465H17.0092L15.4641 22.0139L8.51869 23.9394Z" fill="#264DE4"/>
<path d="M14.1413 20.9117L15.4616 6.12012H8.52905V22.4676L14.1413 20.9117Z" fill="#2965F1"/>
<path d="M3.58742 12.5409L3.77769 14.6642H8.52909V12.5409H3.58742ZM3.20502 8.24347L3.39801 10.3667H8.52909V8.24347H3.20502ZM8.52909 18.0552L8.51979 18.0577L6.15516 17.4192L6.00398 15.7258H3.87256L4.17 19.0596L8.51932 20.2669L8.52909 20.2643V18.0552Z" fill="#EBEBEB"/>
<path d="M4.04047 0H6.61199V1.07541H5.11588V2.15083H6.61212V3.22617H4.04047V0ZM7.12636 0H9.69795V0.935136H8.20177V1.12215H9.69795V3.27297H7.12643V2.29097H8.6226V2.10396H7.12629L7.12636 0ZM10.2123 0H12.7839V0.935136H11.2877V1.12215H12.7839V3.27297H10.2123V2.29097H11.7085V2.10396H10.2124L10.2123 0Z" fill="black"/>
<path d="M13.4572 12.5409L13.8405 8.24347H8.52179V10.3667H11.5136L11.3204 12.5409H8.52179V14.6642H11.1363L10.8898 17.4179L8.52173 18.057V20.2659L12.8745 19.0596L12.9064 18.7009L13.4054 13.1111L13.4572 12.5409Z" fill="white"/>
</g>
<defs>
<clipPath id="clip0_2281_5323">
<rect width="17.0194" height="24" fill="white" transform="translate(0.0194092)"/>
</clipPath>
</defs>
</svg>
