<svg width="18" height="24" viewBox="0 0 18 24" fill="none" xmlns="http://www.w3.org/2000/svg">
<path d="M16.9898 4.70465L15.4447 22.0139L8.49928 23.9394L1.57305 22.0166L0.029541 4.70465H16.9898Z" fill="#E44D26"/>
<path d="M8.50964 22.4676L14.1219 20.9117L15.4422 6.12012H8.50964V22.4676Z" fill="#F16529"/>
<path d="M5.50603 10.3667H8.50969V8.24347H3.18561L3.2364 8.81309L3.75828 14.6642H8.50969V12.5409H5.70009L5.50603 10.3667ZM5.98457 15.7258H3.85315L4.15059 19.0596L8.49991 20.2669L8.50969 20.2643V18.0552L8.50038 18.0577L6.13575 17.4192L5.98457 15.7258Z" fill="#EBEBEB"/>
<path d="M1.60748 0H2.68649V1.06604H3.67354V0H4.75261V3.22823H3.67361V2.14724H2.68655V3.22823H1.60755L1.60748 0ZM6.17147 1.07056H5.22171V0H8.20103V1.07056H7.25067V3.22823H6.17167V1.07056H6.17147ZM8.67385 0H9.79893L10.491 1.13432L11.1824 0H12.308V3.22823H11.2333V1.62814L10.491 2.77596H10.4724L9.72959 1.62814V3.22823H8.67385V0ZM12.8449 0H13.9243V2.1612H15.4417V3.22823H12.8449L12.8449 0Z" fill="black"/>
<path d="M8.50239 14.6642H11.1169L10.8704 17.4179L8.50232 18.057V20.2659L12.8551 19.0596L12.887 18.7009L13.386 13.1111L13.4378 12.5409H8.50239V14.6642ZM8.50239 10.3615V10.3667H13.631L13.6736 9.8895L13.7704 8.81309L13.8211 8.24347H8.50239V10.3615Z" fill="white"/>
</svg>
