<svg width="100" height="42" viewBox="0 0 100 42" fill="none" xmlns="http://www.w3.org/2000/svg">
<path d="M0.468624 29.6497V29.4459L0.71321 29.3644C1.20238 29.2013 1.44697 28.8616 1.44697 28.3453V17.4408C1.44697 17.169 1.39262 16.9652 1.28391 16.8293C1.1752 16.6799 0.984975 16.5712 0.71321 16.5032L0.448242 16.4421V16.2383L4.17818 15.3618L4.42276 15.5453L4.34124 18.3988V25.3695C4.34124 25.8722 4.34124 26.375 4.34124 26.8777C4.35482 27.3669 4.36162 27.8561 4.36162 28.3453C4.36162 28.617 4.41597 28.8412 4.52468 29.0179C4.63338 29.1809 4.81682 29.3032 5.07499 29.3847L5.33996 29.4459V29.6497H0.468624ZM11.3962 29.9554C10.3635 29.9554 9.46665 29.7448 8.70576 29.3236C7.9448 28.8888 7.35372 28.2773 6.93251 27.4892C6.52487 26.7011 6.32101 25.7771 6.32101 24.7172C6.32101 23.6574 6.53843 22.7402 6.97327 21.9656C7.42168 21.1911 8.02633 20.5932 8.78729 20.172C9.56181 19.7508 10.4314 19.5402 11.3962 19.5402C12.3609 19.5402 13.2238 19.7508 13.9847 20.172C14.7456 20.5797 15.3435 21.1707 15.7784 21.9453C16.2268 22.7198 16.451 23.6438 16.451 24.7172C16.451 25.7907 16.2403 26.7215 15.8191 27.5096C15.4115 28.2841 14.8272 28.8888 14.0663 29.3236C13.3189 29.7448 12.4289 29.9554 11.3962 29.9554ZM11.3962 29.5478C11.8717 29.5478 12.2523 29.4119 12.5376 29.1402C12.823 28.8684 13.0268 28.386 13.1491 27.693C13.2849 27 13.3529 26.0217 13.3529 24.758C13.3529 23.4807 13.2849 22.4956 13.1491 21.8026C13.0268 21.1096 12.823 20.6272 12.5376 20.3554C12.2523 20.0837 11.8717 19.9478 11.3962 19.9478C10.9206 19.9478 10.5333 20.0837 10.2344 20.3554C9.94907 20.6272 9.73843 21.1096 9.60257 21.8026C9.48028 22.4956 9.41913 23.4807 9.41913 24.758C9.41913 26.0217 9.48028 27 9.60257 27.693C9.73843 28.386 9.94907 28.8684 10.2344 29.1402C10.5333 29.4119 10.9206 29.5478 11.3962 29.5478ZM20.8723 29.9554C20.2065 29.9554 19.6086 29.8739 19.0787 29.7109C18.5488 29.5614 18.0595 29.3712 17.6111 29.1402L17.6316 26.7147H17.8354L18.5284 27.9376C18.8273 28.4811 19.1534 28.8888 19.5067 29.1605C19.8736 29.4187 20.3356 29.5478 20.8927 29.5478C21.5449 29.5478 22.0681 29.4051 22.4621 29.1198C22.8698 28.8209 23.0736 28.4268 23.0736 27.9376C23.0736 27.4892 22.9309 27.1223 22.6456 26.837C22.3602 26.5516 21.8303 26.2935 21.0558 26.0625L20.1997 25.7975C19.3708 25.5529 18.7186 25.1725 18.243 24.6561C17.7674 24.1397 17.5296 23.5079 17.5296 22.7605C17.5296 21.8637 17.8829 21.1028 18.5895 20.4777C19.2961 19.8527 20.3084 19.5402 21.6265 19.5402C22.1564 19.5402 22.6523 19.6013 23.1144 19.7236C23.5899 19.8323 24.0451 20.0022 24.48 20.2332L24.3577 22.4344H24.1538L23.4405 21.1707C23.1823 20.7223 22.9241 20.4098 22.6659 20.2332C22.4214 20.0429 22.0477 19.9478 21.5449 19.9478C21.0829 19.9478 20.6481 20.0769 20.2405 20.3351C19.8328 20.5932 19.6289 20.9601 19.6289 21.4357C19.6289 21.8977 19.7988 22.2646 20.1386 22.5363C20.4918 22.8081 21.0082 23.0595 21.6876 23.2905L22.6048 23.5554C23.5831 23.8544 24.2829 24.2688 24.7042 24.7988C25.1254 25.3151 25.336 25.9402 25.336 26.6739C25.336 27.6658 24.9419 28.4607 24.1538 29.0586C23.3793 29.6565 22.2854 29.9554 20.8723 29.9554ZM30.0962 29.9554C29.2265 29.9554 28.5472 29.7381 28.058 29.3032C27.5824 28.8684 27.3446 28.1754 27.3446 27.2242V20.2535H25.9382V20.0497L26.4274 19.9682C26.8486 19.8731 27.2087 19.7372 27.5077 19.5605C27.8202 19.3839 28.1259 19.1461 28.4249 18.8472L30.0962 16.9924H30.3L30.2389 19.8459H32.5217V20.2535H30.2185V27.5911C30.2185 28.0667 30.3204 28.4268 30.5242 28.6714C30.7416 28.916 31.0134 29.0383 31.3395 29.0383C31.6249 29.0383 31.8762 28.9703 32.0937 28.8344C32.311 28.6849 32.5284 28.4879 32.7459 28.2433L32.9497 28.4472C32.6779 28.9091 32.3042 29.276 31.8287 29.5478C31.3531 29.8196 30.7756 29.9554 30.0962 29.9554Z" fill="#9AC5FF"/>
<path d="M37.889 29.9554C36.9922 29.9554 36.2244 29.7924 35.5858 29.4663C34.9607 29.1266 34.4852 28.6849 34.1591 28.1414C33.833 27.5979 33.6699 26.9932 33.6699 26.3274C33.6699 24.6833 34.7298 23.4196 36.8495 22.5363C36.469 22.0199 36.1293 21.4968 35.8304 20.9669C35.5451 20.437 35.4024 19.8187 35.4024 19.1121C35.4024 18.1474 35.7421 17.3796 36.4215 16.8089C37.1145 16.2246 38.0181 15.9325 39.1323 15.9325C40.2193 15.9325 41.0618 16.1771 41.6597 16.6663C42.2576 17.1418 42.5565 17.7737 42.5565 18.5618C42.5565 19.2276 42.2848 19.8119 41.7413 20.3147C41.1977 20.8174 40.4232 21.2794 39.4177 21.7006C39.6758 21.986 39.9408 22.2917 40.2126 22.6178C40.4979 22.9304 40.7901 23.2429 41.089 23.5554C41.4559 23.9631 41.8092 24.3503 42.1489 24.7172C42.5021 25.0841 42.8555 25.4645 43.2088 25.8586C43.5349 25.4102 43.8406 24.8667 44.126 24.228C44.4113 23.5894 44.6355 22.9168 44.7986 22.2102C44.9072 21.6938 44.7102 21.3609 44.2075 21.2115L44.0648 21.1503V20.9465H46.368V21.1503L46.1846 21.2115C45.7362 21.3609 45.444 21.6735 45.3081 22.1491C45.1043 22.91 44.8529 23.6301 44.554 24.3096C44.255 24.989 43.9085 25.6072 43.5145 26.1643L45.6954 28.4675C45.872 28.6578 46.0486 28.814 46.2253 28.9363C46.402 29.0586 46.599 29.1809 46.8164 29.3032L47.1018 29.4459V29.6497H42.9846L41.619 28.1822C41.3607 28.4675 41.0686 28.7461 40.7425 29.0178C40.4164 29.2896 40.0223 29.5138 39.5604 29.6905C39.0983 29.8671 38.5413 29.9554 37.889 29.9554ZM39.173 21.4357C39.703 20.9601 40.0835 20.4845 40.3145 20.0089C40.5591 19.5198 40.6814 18.983 40.6814 18.3987C40.6814 17.8688 40.5455 17.4408 40.2737 17.1147C40.002 16.775 39.6283 16.6051 39.1527 16.6051C38.7043 16.6051 38.3306 16.7682 38.0317 17.0943C37.7327 17.4204 37.5833 17.8348 37.5833 18.3376C37.5833 18.6501 37.6376 18.9762 37.7464 19.3159C37.8686 19.6556 38.0792 20.0429 38.3782 20.4777C38.4597 20.5864 38.5684 20.7155 38.7043 20.865C38.8402 21.0145 38.9964 21.2047 39.173 21.4357ZM39.0712 28.5898C39.5467 28.5898 39.9748 28.5219 40.3553 28.386C40.7357 28.2365 41.0618 28.0531 41.3336 27.8357C41.0075 27.4688 40.6678 27.0884 40.3145 26.6943C39.9612 26.2866 39.6283 25.8994 39.3158 25.5325C38.9353 25.0841 38.5616 24.6357 38.1948 24.1873C37.8415 23.7389 37.4881 23.304 37.1349 22.8828C36.7816 23.2089 36.5234 23.5894 36.3604 24.0242C36.1973 24.4591 36.1158 24.9142 36.1158 25.3898C36.1158 26.3138 36.3875 27.0815 36.9311 27.693C37.4881 28.2909 38.2015 28.5898 39.0712 28.5898Z" fill="#549DFF"/>
<path d="M48.3187 29.6497V29.4459L48.5837 29.3847C48.8418 29.3167 49.0457 29.2013 49.1952 29.0382C49.3446 28.8616 49.4194 28.6374 49.4194 28.3656C49.4194 27.8629 49.4194 27.3669 49.4194 26.8777C49.4329 26.375 49.4397 25.8722 49.4397 25.3694V20.2535H48.2983V20.0293L48.7467 19.9478C49.0185 19.9206 49.2155 19.8255 49.3378 19.6624C49.4601 19.4994 49.5484 19.2752 49.6028 18.9898C49.7387 18.4599 49.9357 17.9979 50.1939 17.6038C50.4656 17.1962 50.7713 16.8225 51.1111 16.4828C51.6274 15.9936 52.1709 15.6539 52.7417 15.4637C53.3259 15.2599 53.8966 15.158 54.4538 15.158C54.9973 15.158 55.4932 15.2735 55.9417 15.5045C56.3901 15.7219 56.6143 16.0887 56.6143 16.6051C56.6143 16.972 56.5055 17.2641 56.2881 17.4815C56.0707 17.6853 55.765 17.7873 55.3709 17.7873C55.0448 17.7873 54.7459 17.6989 54.4741 17.5223C54.2024 17.3456 53.9374 17.0331 53.6792 16.5847L53.3939 16.2382C53.2444 16.048 53.0949 15.9597 52.9455 15.9732C52.796 15.9732 52.6873 16.082 52.6194 16.2994C52.5242 16.7749 52.4495 17.3321 52.3952 17.9707C52.3544 18.6093 52.334 19.2344 52.334 19.8459H54.6168V20.2535H52.334V28.3248C52.334 28.8412 52.6057 29.1741 53.1493 29.3236L53.6588 29.4459V29.6497H48.3187ZM58.2402 29.9554C57.4521 29.9554 56.7862 29.7312 56.2427 29.2828C55.7128 28.8344 55.4478 28.189 55.4478 27.3465C55.4478 26.7078 55.7739 26.1236 56.4262 25.5936C57.0784 25.0501 58.1043 24.6425 59.5039 24.3707C59.7213 24.3299 59.9659 24.2892 60.2376 24.2484C60.5094 24.1941 60.7948 24.1397 61.0937 24.0853V22.4752C61.0937 21.5511 60.9782 20.9057 60.7472 20.5389C60.5298 20.1584 60.1833 19.9682 59.7077 19.9682C59.3816 19.9682 59.1234 20.0769 58.9332 20.2943C58.7429 20.4981 58.6206 20.8582 58.5663 21.3745L58.5255 21.5987C58.4983 22.183 58.3557 22.611 58.0975 22.8828C57.8394 23.1546 57.52 23.2904 57.1395 23.2904C56.7862 23.2904 56.4941 23.1817 56.2631 22.9643C56.0321 22.7469 55.9166 22.4548 55.9166 22.0879C55.9166 21.5308 56.1069 21.062 56.4873 20.6815C56.8814 20.3011 57.3977 20.0157 58.0364 19.8255C58.675 19.6352 59.368 19.5401 60.1153 19.5401C61.3247 19.5401 62.2555 19.8391 62.9077 20.4369C63.5735 21.0212 63.9064 21.9792 63.9064 23.3108V27.8153C63.9064 28.4268 64.1918 28.7325 64.7625 28.7325H65.2109L65.3943 28.8955C65.1364 29.2217 64.851 29.4731 64.5383 29.6497C64.2395 29.8263 63.8115 29.9146 63.2542 29.9146C62.6563 29.9146 62.1808 29.7788 61.8274 29.507C61.4878 29.2217 61.2636 28.848 61.1548 28.386C60.7472 28.8208 60.326 29.1945 59.8911 29.507C59.4699 29.8059 58.9196 29.9554 58.2402 29.9554ZM59.4835 28.7121C59.7553 28.7121 60.0066 28.651 60.2376 28.5287C60.4822 28.3928 60.7676 28.189 61.0937 27.9172V24.493C60.9578 24.5202 60.8219 24.5473 60.686 24.5745C60.5502 24.6017 60.3939 24.6289 60.2173 24.656C59.5922 24.8191 59.0894 25.0976 58.709 25.4917C58.3421 25.8722 58.1587 26.3885 58.1587 27.0408C58.1587 27.5979 58.2878 28.0191 58.5459 28.3045C58.8041 28.5762 59.1166 28.7121 59.4835 28.7121ZM69.344 29.9554C68.8141 29.9554 68.3249 29.8535 67.8765 29.6497C67.4415 29.4459 67.095 29.1197 66.837 28.6713C66.5924 28.2094 66.4765 27.6046 66.4905 26.8573L66.5517 21.6191C66.5517 21.3066 66.4969 21.0824 66.3886 20.9465C66.2797 20.8106 66.1096 20.7155 65.879 20.6611L65.6345 20.5796V20.3758L69.2829 19.6624L69.4867 19.8662L69.3848 22.7605V27.6726C69.3848 28.1075 69.5071 28.4267 69.7517 28.6306C70.0096 28.8344 70.3287 28.9363 70.7096 28.9363C71.0899 28.9363 71.4294 28.882 71.7287 28.7732C72.0274 28.6645 72.3262 28.5015 72.6255 28.2841L72.7071 21.6395C72.7071 21.327 72.6593 21.1096 72.5644 20.9873C72.4688 20.8514 72.2924 20.7563 72.0345 20.7019L71.8306 20.6408V20.4369L75.3975 19.6624L75.6013 19.8662L75.5395 22.7605V28.2841C75.5395 28.583 75.5809 28.814 75.6625 28.9771C75.744 29.1401 75.9204 29.276 76.1924 29.3847L76.3962 29.4459V29.6497L72.8294 29.8535L72.6459 28.651C72.1975 29.0178 71.7083 29.3304 71.1784 29.5885C70.6618 29.8331 70.0504 29.9554 69.344 29.9554ZM77.2192 29.6497V29.4459L77.5045 29.3643C77.9797 29.2285 78.2179 28.8955 78.2179 28.3656V21.986C78.2179 21.6871 78.1701 21.4696 78.0752 21.3338C77.9797 21.1843 77.7962 21.0824 77.5249 21.028L77.2192 20.9465V20.7427L80.7045 19.5605L80.9083 19.7643L81.0714 20.9873C81.5466 20.566 82.0835 20.2195 82.6816 19.9478C83.279 19.676 83.8701 19.5401 84.4548 19.5401C85.3516 19.5401 86.0376 19.7847 86.5134 20.2739C87.0026 20.7631 87.2472 21.5104 87.2472 22.5159V28.386C87.2472 28.9159 87.5052 29.2489 88.0217 29.3847L88.2051 29.4459V29.6497H83.395V29.4459L83.6599 29.3643C84.1351 29.2148 84.3733 28.882 84.3733 28.3656V21.8637C84.3733 20.9941 83.9383 20.5592 83.0688 20.5592C82.4708 20.5592 81.8185 20.8582 81.1122 21.456V28.386C81.1122 28.9159 81.3497 29.2489 81.8255 29.3847L82.009 29.4459V29.6497H77.2192ZM93.3236 29.9554C92.5217 29.9554 91.8013 29.7788 91.1631 29.4255C90.5243 29.0586 90.0147 28.5015 89.6344 27.7541C89.2676 26.9932 89.0841 26.0217 89.0841 24.8395C89.0841 23.6438 89.2943 22.6586 89.716 21.8841C90.137 21.096 90.6943 20.5117 91.3873 20.1312C92.0803 19.7372 92.8344 19.5401 93.6497 19.5401C94.1249 19.5401 94.5803 19.5877 95.0153 19.6828C95.4497 19.7779 95.837 19.9206 96.1771 20.1108V17.4611C96.1771 17.1758 96.1294 16.9652 96.0345 16.8293C95.9529 16.6934 95.7695 16.5983 95.4841 16.5439L95.0969 16.4624V16.2586L98.8064 15.3618L99.0306 15.5452L98.9491 18.3987V28.3656C98.9491 28.6374 98.9962 28.8616 99.0918 29.0382C99.1867 29.2013 99.3631 29.3167 99.6217 29.3847L99.8052 29.4459V29.6497L96.3198 29.8739L96.1364 29.1401C95.7695 29.3847 95.3478 29.5817 94.8727 29.7312C94.4102 29.8807 93.8943 29.9554 93.3236 29.9554ZM94.5058 29.2013C95.0765 29.2013 95.5994 29.0314 96.0752 28.6917V20.6C95.572 20.2739 95.0561 20.1108 94.5262 20.1108C93.8739 20.1108 93.3166 20.4913 92.8548 21.2522C92.3924 21.9996 92.1618 23.1817 92.1618 24.7987C92.1618 26.4157 92.379 27.5571 92.8141 28.2229C93.2485 28.8752 93.8128 29.2013 94.5058 29.2013Z" fill="#004DB5"/>
</svg>
