<svg width="40" height="42" viewBox="0 0 40 42" fill="none" xmlns="http://www.w3.org/2000/svg">
<g clip-path="url(#clip0_2281_5390)">
<path d="M35.5954 0H3.49975C1.57187 0.00351273 0.00870545 1.5624 0 3.48997V38.3987C0.00885818 40.3273 1.57309 41.887 3.50173 41.8897H35.5974C37.5259 41.8868 39.0899 40.327 39.0982 38.3987V36.7705C39.0395 34.675 38.9809 30.3118 38.9809 28.3338C38.9809 27.2281 38.1641 26.2972 37.1138 26.2972C35.9462 26.2972 35.1879 26.9956 34.6048 27.5767C32.8539 29.1485 30.2276 29.4396 27.9511 29.0322C26.9018 28.7987 25.9091 28.5087 25.0934 27.9851C22.5833 26.5296 20.9498 23.7957 20.9498 20.8868C20.9498 17.9778 22.5833 15.3016 25.0923 13.7884C25.9678 13.2648 26.9605 12.9737 27.9521 12.7413C30.1701 12.3339 32.8539 12.624 34.6048 14.1957C35.2467 14.7779 36.0048 15.4752 37.1138 15.4752C38.1641 15.4752 38.9809 14.5444 38.9809 13.4386C38.9809 11.5193 39.0395 7.09739 39.0982 5.00304V3.48997C39.0982 1.57065 37.5222 0 35.5965 0H35.5954Z" fill="#F46A54"/>
</g>
<defs>
<clipPath id="clip0_2281_5390">
<rect width="39.0982" height="42" fill="white"/>
</clipPath>
</defs>
</svg>
