<svg width="42" height="42" viewBox="0 0 42 42" fill="none" xmlns="http://www.w3.org/2000/svg">
<g clip-path="url(#clip0_2281_5367)">
<path d="M42 21C42 23.226 41.832 25.452 41.454 27.594C40.32 34.692 34.692 40.32 27.594 41.454C25.452 41.832 23.226 42 21 42C18.774 42 16.548 41.832 14.406 41.454C7.308 40.32 1.68 34.692 0.546 27.594C0.168 25.452 0 23.226 0 21C0 18.774 0.168 16.548 0.546 14.406C1.68 7.308 7.308 1.68 14.406 0.546C16.548 0.168 18.774 0 21 0C23.226 0 25.452 0.168 27.594 0.546C34.692 1.68 40.32 7.308 41.454 14.406C41.832 16.548 42 18.774 42 21Z" fill="url(#paint0_linear_2281_5367)"/>
<path d="M33.474 34.104H12.306C10.92 34.104 9.576 33.348 8.946 32.13C8.19 30.702 8.484 28.98 9.618 27.846L24.36 13.104H13.776C10.878 13.104 8.526 10.752 8.526 7.854H28.014C29.4 7.854 30.744 8.61 31.374 9.828C32.13 11.256 31.836 12.978 30.702 14.112L16.002 28.896H28.224C31.122 28.896 33.474 31.206 33.474 34.104Z" fill="white"/>
</g>
<defs>
<linearGradient id="paint0_linear_2281_5367" x1="993.972" y1="4015.7" x2="3206.03" y2="184.296" gradientUnits="userSpaceOnUse">
<stop stop-color="#0845BF"/>
<stop offset="0.1911" stop-color="#0950DE"/>
<stop offset="0.3823" stop-color="#0B59F6"/>
<stop offset="0.5" stop-color="#0B5CFF"/>
<stop offset="0.6732" stop-color="#0E5EFE"/>
<stop offset="0.7774" stop-color="#1665FC"/>
<stop offset="0.8633" stop-color="#246FF9"/>
<stop offset="0.9388" stop-color="#387FF4"/>
<stop offset="1" stop-color="#4F90EE"/>
</linearGradient>
<clipPath id="clip0_2281_5367">
<rect width="42" height="42" fill="white"/>
</clipPath>
</defs>
</svg>
