<svg width="100" height="42" viewBox="0 0 100 42" fill="none" xmlns="http://www.w3.org/2000/svg">
<rect width="100" height="42" rx="4" fill="#0D47A1"/>
<path d="M13.5282 5.09375C13.4813 5.04688 13.4344 5 13.3875 5H9.40316C9.35628 5 9.35628 5.04688 9.30941 5.09375C9.30941 5.09375 9.26253 5.14063 9.30941 5.1875L19.4813 37.8579C19.4813 37.9048 19.4813 37.9048 19.4813 37.9048C19.4813 37.9048 19.4813 37.9048 19.5281 37.9517C19.575 37.9517 19.575 37.9517 19.575 37.9517C19.6219 37.9517 19.6219 37.9517 19.6219 37.9517C19.6688 37.9517 19.6688 37.9517 19.6688 37.9517V37.9048C19.7156 37.9048 19.7156 37.9048 19.7156 37.8579L21.6844 31.4829L29.886 5.1875C29.9329 5.14063 29.886 5.04688 29.7923 5.04688C29.7454 5 29.6517 5.04688 29.6517 5.09375L21.5906 31.0142L13.5282 5.09375Z" fill="white"/>
<path d="M33.1234 37.8111C33.0765 37.8579 33.1234 37.9517 33.1703 37.9517C33.2172 37.9517 33.2172 37.9517 33.2172 37.9517C33.264 37.9517 33.3109 37.9048 33.3578 37.8579L41.4203 11.9375L49.4828 37.8579C49.5296 37.9048 49.5765 37.9517 49.6234 37.9517H53.6063C53.6063 37.9517 53.6532 37.9517 53.7001 37.9048C53.7001 37.8579 53.7001 37.8579 53.7001 37.8111L43.5297 5.09375C43.4828 5.04688 43.4828 5.04688 43.4828 5.04688C43.4828 5.04688 43.4828 5.04688 43.4359 5.04688C43.4359 5.04688 43.4359 5 43.389 5V5.04688C43.3422 5.04688 43.3422 5.04688 43.3422 5.04688C43.3422 5.04688 43.3422 5.04688 43.2953 5.09375L41.2797 11.5156L33.1234 37.8111Z" fill="white"/>
<path d="M73.3833 37.9517C77.7881 37.9517 81.9131 36.2642 85.0068 33.1236C85.0537 33.0767 85.0537 33.0298 85.0068 32.9361C84.9599 32.8892 84.8662 32.8892 84.8193 32.9361C81.7724 36.0298 77.6943 37.7173 73.3833 37.7173C66.5395 37.7173 60.9614 30.4517 60.9614 21.4986C60.9614 12.5469 66.5395 5.28125 73.3833 5.28125C77.6943 5.28125 81.7724 6.96875 84.8193 10.0156C84.8662 10.0625 84.9599 10.0625 85.0068 10.0156C85.0537 9.96876 85.0537 9.87501 85.0068 9.82813C81.9131 6.73438 77.7881 5.04688 73.3833 5.04688C68.977 5.04688 64.852 6.73438 61.7114 9.82813C55.2896 16.25 55.2896 26.7017 61.7114 33.1236C64.852 36.2642 68.977 37.9517 73.3833 37.9517Z" fill="white"/>
<mask id="mask0_2945_100575" style="mask-type:luminance" maskUnits="userSpaceOnUse" x="8" y="17" width="85" height="9">
<path d="M8 17.2461H92.1537V25.751H8V17.2461Z" fill="white"/>
</mask>
<g mask="url(#mask0_2945_100575)">
<path d="M8 17.2461H92.0453V25.4859H8V17.2461Z" fill="white"/>
</g>
<path d="M14.4429 22.4844L15.2515 20.5918H15.0508L14.4429 22.0303L13.8306 20.5918H13.6313L14.4429 22.4844Z" fill="#26588D"/>
<path d="M16.7681 22.3774V22.2075H15.8921V21.5718H16.7417V21.3989H15.8921V20.7632H16.7681V20.5918H15.7075V22.3774H16.7681Z" fill="#26588D"/>
<path d="M17.5796 21.4956V20.7676H17.9941C18.1011 20.7676 18.189 20.8027 18.2534 20.8701C18.3164 20.939 18.3516 21.0225 18.3516 21.1279C18.3516 21.2334 18.3164 21.3198 18.249 21.3901C18.1802 21.4619 18.0967 21.4956 17.9941 21.4956H17.5796ZM18.5347 21.1309C18.5347 20.9785 18.4775 20.8467 18.3662 20.7441C18.2593 20.6445 18.126 20.5918 17.9678 20.5918H17.395V22.3774H17.5796V21.6714H17.792L18.3164 22.3774H18.564L18.0132 21.6714C18.1523 21.6641 18.2695 21.6143 18.3662 21.522C18.4775 21.4194 18.5347 21.2876 18.5347 21.1309Z" fill="#26588D"/>
<path d="M19.2437 22.3774V20.5918H19.0591V22.3774H19.2437Z" fill="#26588D"/>
<path d="M20.9302 20.7632V20.5918H19.8696V22.3774H20.0542V21.5718H20.9038V21.3989H20.0542V20.7632H20.9302Z" fill="#26588D"/>
<path d="M21.5991 22.3774V20.5918H21.4146V22.3774H21.5991Z" fill="#26588D"/>
<path d="M23.8638 21.8311H23.6616C23.5986 21.9468 23.5122 22.042 23.4009 22.1094C23.291 22.1812 23.168 22.2148 23.0361 22.2148C22.8398 22.2148 22.6714 22.1445 22.5322 21.9966C22.396 21.8574 22.3301 21.6875 22.3301 21.4868C22.3301 21.2876 22.396 21.1177 22.5322 20.9756C22.5952 20.9097 22.6714 20.8569 22.7578 20.8188C22.8428 20.7793 22.9263 20.7573 23.0098 20.7573C23.0918 20.7573 23.1621 20.7676 23.2251 20.7866C23.417 20.8438 23.562 20.9595 23.6587 21.1353H23.8608C23.792 20.9683 23.6851 20.8306 23.5356 20.7266C23.3833 20.6211 23.2178 20.5684 23.0361 20.5684C22.7871 20.5684 22.5776 20.6606 22.4033 20.8423C22.3228 20.9258 22.2598 21.0254 22.2144 21.1353C22.1675 21.2466 22.147 21.3638 22.147 21.4868C22.147 21.7402 22.2305 21.9526 22.4033 22.1314C22.5776 22.3145 22.7871 22.4038 23.0361 22.4038C23.2178 22.4038 23.3833 22.3511 23.5371 22.2456C23.688 22.1416 23.7949 22.0054 23.8638 21.8311Z" fill="#26588D"/>
<path d="M24.6597 21.7153L24.9849 20.8936L25.3071 21.7153H24.6597ZM25.7671 22.3716L24.9849 20.4629L24.1997 22.3716H24.3989L24.5908 21.8853H25.376L25.5679 22.3716H25.7671Z" fill="#26588D"/>
<path d="M26.0786 20.75H26.5122V22.3643H26.6953V20.75H27.1289V20.5801H26.0786V20.75Z" fill="#26588D"/>
<path d="M27.7983 22.3774V20.5918H27.6138V22.3774H27.7983Z" fill="#26588D"/>
<path d="M29.9951 21.4722C29.9951 21.6772 29.9219 21.8501 29.7798 21.9922C29.6348 22.1372 29.4619 22.2075 29.2598 22.2075C29.0576 22.2075 28.8848 22.1372 28.7427 21.9922C28.5977 21.8501 28.5273 21.6772 28.5273 21.4722C28.5273 21.273 28.5977 21.1001 28.7427 20.9551C28.8848 20.813 29.0576 20.7397 29.2598 20.7397C29.4619 20.7397 29.6348 20.813 29.7798 20.9551C29.9219 21.1001 29.9951 21.273 29.9951 21.4722ZM30.1782 21.4722C30.1782 21.3462 30.1519 21.2275 30.105 21.1147C30.0581 21.0049 29.9922 20.9082 29.9087 20.8232C29.8237 20.7427 29.727 20.6768 29.6172 20.6299C29.5044 20.583 29.3857 20.5566 29.2598 20.5566C29.1338 20.5566 29.0137 20.583 28.9023 20.6299C28.7925 20.6768 28.6958 20.7427 28.6108 20.8232C28.5273 20.9082 28.4614 21.0049 28.4146 21.1147C28.3677 21.2275 28.3442 21.3462 28.3442 21.4722C28.3442 21.5981 28.3677 21.7197 28.4146 21.8296C28.4614 21.9424 28.5273 22.0391 28.6108 22.124C28.6958 22.2075 28.7925 22.2734 28.9023 22.3203C29.0137 22.3672 29.1338 22.3906 29.2598 22.3906C29.3857 22.3906 29.5044 22.3672 29.6172 22.3203C29.727 22.2734 29.8237 22.2075 29.9087 22.124C29.9922 22.0391 30.0581 21.9424 30.105 21.8296C30.1519 21.7197 30.1782 21.5981 30.1782 21.4722Z" fill="#26588D"/>
<path d="M30.9155 21.0576L31.9175 22.4829V20.5874H31.7344V21.8999L30.731 20.4746V22.373H30.9155V21.0576Z" fill="#26588D"/>
<path d="M33.7769 21.7153L34.102 20.8936L34.4243 21.7153H33.7769ZM34.8843 22.3716L34.102 20.4629L33.3169 22.3716H33.5161L33.708 21.8853H34.4932L34.6851 22.3716H34.8843Z" fill="#26588D"/>
<path d="M35.5239 21.0576L36.5259 22.4829V20.5874H36.3428V21.8999L35.3394 20.4746V22.373H35.5239V21.0576Z" fill="#26588D"/>
<path d="M38.5381 21.4854C38.5381 21.3564 38.5117 21.2378 38.4634 21.1279C38.4165 21.0181 38.3506 20.9229 38.27 20.8438C38.1851 20.7661 38.0884 20.7046 37.9785 20.6606C37.8657 20.6167 37.7441 20.5918 37.6182 20.5918H37.1509V22.3774H37.6182C37.7441 22.3774 37.8657 22.3569 37.9785 22.3115C38.0884 22.2676 38.1851 22.2046 38.27 22.1255C38.3506 22.0464 38.4165 21.9541 38.4634 21.8442C38.5117 21.7344 38.5381 21.6157 38.5381 21.4854ZM38.3594 21.4854C38.3594 21.689 38.2861 21.8604 38.144 21.9937C38.002 22.1284 37.8291 22.1943 37.624 22.1943H37.3354V20.7764H37.624C37.8291 20.7764 38.002 20.8438 38.144 20.9756C38.2861 21.1118 38.3594 21.2832 38.3594 21.4854Z" fill="#26588D"/>
<path d="M40.3179 21.7153L40.6431 20.8936L40.9653 21.7153H40.3179ZM41.4253 22.3716L40.6431 20.4629L39.8579 22.3716H40.0571L40.249 21.8853H41.0342L41.2261 22.3716H41.4253Z" fill="#26588D"/>
<path d="M43.1733 21.7871V20.5918H42.9902V21.8135C42.9902 21.8867 42.977 21.9468 42.9507 21.9966C42.8745 22.1445 42.7266 22.2178 42.5098 22.2178C42.3677 22.2178 42.2549 22.1855 42.1714 22.1226C42.0732 22.0522 42.0264 21.9497 42.0264 21.8135V20.5918H41.8433V21.7871C41.8433 21.9805 41.9063 22.1328 42.0322 22.2441C42.1494 22.3481 42.3105 22.4009 42.5098 22.4009C42.7061 22.4009 42.8643 22.3481 42.9844 22.2441C43.1103 22.1328 43.1733 21.9805 43.1733 21.7871Z" fill="#26588D"/>
<path d="M43.6187 20.75H44.0522V22.3643H44.2354V20.75H44.6689V20.5801H43.6187V20.75Z" fill="#26588D"/>
<path d="M45.3335 22.3774V21.5791H46.145V22.3774H46.3281V20.5918H46.145V21.396H45.3335V20.5918H45.1489V22.3774H45.3335Z" fill="#26588D"/>
<path d="M48.0181 22.3774V22.2075H47.1421V21.5718H47.9917V21.3989H47.1421V20.7632H48.0181V20.5918H46.9575V22.3774H48.0181Z" fill="#26588D"/>
<path d="M48.8306 21.0576L49.8325 22.4829V20.5874H49.6494V21.8999L48.646 20.4746V22.373H48.8306V21.0576Z" fill="#26588D"/>
<path d="M50.3159 20.75H50.7495V22.3643H50.9326V20.75H51.3662V20.5801H50.3159V20.75Z" fill="#26588D"/>
<path d="M52.0308 22.3774V20.5918H51.8462V22.3774H52.0308Z" fill="#26588D"/>
<path d="M54.2993 21.8311H54.0972C54.0342 21.9468 53.9478 22.042 53.8364 22.1094C53.7266 22.1812 53.6035 22.2148 53.4717 22.2148C53.2754 22.2148 53.1069 22.1445 52.9678 21.9966C52.8315 21.8574 52.7656 21.6875 52.7656 21.4868C52.7656 21.2876 52.8315 21.1177 52.9678 20.9756C53.0308 20.9097 53.1069 20.8569 53.1934 20.8188C53.2783 20.7793 53.3618 20.7573 53.4453 20.7573C53.5273 20.7573 53.5977 20.7676 53.6606 20.7866C53.8525 20.8438 53.9976 20.9595 54.0942 21.1353H54.2964C54.2275 20.9683 54.1206 20.8306 53.9712 20.7266C53.8188 20.6211 53.6533 20.5684 53.4717 20.5684C53.2227 20.5684 53.0132 20.6606 52.8389 20.8423C52.7583 20.9258 52.6953 21.0254 52.6499 21.1353C52.603 21.2466 52.5825 21.3638 52.5825 21.4868C52.5825 21.7402 52.666 21.9526 52.8389 22.1314C53.0132 22.3145 53.2227 22.4038 53.4717 22.4038C53.6533 22.4038 53.8188 22.3511 53.9727 22.2456C54.1235 22.1416 54.2305 22.0054 54.2993 21.8311Z" fill="#26588D"/>
<path d="M55.0972 21.7153L55.4224 20.8936L55.7446 21.7153H55.0972ZM56.2046 22.3716L55.4224 20.4629L54.6372 22.3716H54.8364L55.0283 21.8853H55.8135L56.0054 22.3716H56.2046Z" fill="#26588D"/>
<path d="M56.5181 20.75H56.9517V22.3643H57.1348V20.75H57.5684V20.5801H56.5181V20.75Z" fill="#26588D"/>
<path d="M58.2339 22.3774V20.5918H58.0493V22.3774H58.2339Z" fill="#26588D"/>
<path d="M60.4307 21.4722C60.4307 21.6772 60.3574 21.8501 60.2153 21.9922C60.0703 22.1372 59.8975 22.2075 59.6953 22.2075C59.4932 22.2075 59.3203 22.1372 59.1782 21.9922C59.0332 21.8501 58.9629 21.6772 58.9629 21.4722C58.9629 21.273 59.0332 21.1001 59.1782 20.9551C59.3203 20.813 59.4932 20.7397 59.6953 20.7397C59.8975 20.7397 60.0703 20.813 60.2153 20.9551C60.3574 21.1001 60.4307 21.273 60.4307 21.4722ZM60.6138 21.4722C60.6138 21.3462 60.5874 21.2275 60.5405 21.1147C60.4937 21.0049 60.4277 20.9082 60.3442 20.8232C60.2593 20.7427 60.1626 20.6768 60.0527 20.6299C59.9399 20.583 59.8213 20.5566 59.6953 20.5566C59.5693 20.5566 59.4492 20.583 59.3379 20.6299C59.228 20.6768 59.1313 20.7427 59.0464 20.8232C58.9629 20.9082 58.897 21.0049 58.8501 21.1147C58.8032 21.2275 58.7798 21.3462 58.7798 21.4722C58.7798 21.5981 58.8032 21.7197 58.8501 21.8296C58.897 21.9424 58.9629 22.0391 59.0464 22.124C59.1313 22.2075 59.228 22.2734 59.3379 22.3203C59.4492 22.3672 59.5693 22.3906 59.6953 22.3906C59.8213 22.3906 59.9399 22.3672 60.0527 22.3203C60.1626 22.2734 60.2593 22.2075 60.3442 22.124C60.4277 22.0391 60.4937 21.9424 60.5405 21.8296C60.5874 21.7197 60.6138 21.5981 60.6138 21.4722Z" fill="#26588D"/>
<path d="M61.3472 21.0576L62.3491 22.4829V20.5874H62.166V21.8999L61.1626 20.4746V22.373H61.3472V21.0576Z" fill="#26588D"/>
<path d="M65.4932 21.4722C65.4932 21.6772 65.4199 21.8501 65.2778 21.9922C65.1328 22.1372 64.96 22.2075 64.7578 22.2075C64.5557 22.2075 64.3828 22.1372 64.2407 21.9922C64.0957 21.8501 64.0254 21.6772 64.0254 21.4722C64.0254 21.273 64.0957 21.1001 64.2407 20.9551C64.3828 20.813 64.5557 20.7397 64.7578 20.7397C64.96 20.7397 65.1328 20.813 65.2778 20.9551C65.4199 21.1001 65.4932 21.273 65.4932 21.4722ZM65.6763 21.4722C65.6763 21.3462 65.6499 21.2275 65.603 21.1147C65.5562 21.0049 65.4902 20.9082 65.4067 20.8232C65.3218 20.7427 65.2251 20.6768 65.1152 20.6299C65.0024 20.583 64.8838 20.5566 64.7578 20.5566C64.6318 20.5566 64.5117 20.583 64.4004 20.6299C64.2905 20.6768 64.1938 20.7427 64.1089 20.8232C64.0254 20.9082 63.9595 21.0049 63.9126 21.1147C63.8657 21.2275 63.8423 21.3462 63.8423 21.4722C63.8423 21.5981 63.8657 21.7197 63.9126 21.8296C63.9595 21.9424 64.0254 22.0391 64.1089 22.124C64.1938 22.2075 64.2905 22.2734 64.4004 22.3203C64.5117 22.3672 64.6318 22.3906 64.7578 22.3906C64.8838 22.3906 65.0024 22.3672 65.1152 22.3203C65.2251 22.2734 65.3218 22.2075 65.4067 22.124C65.4902 22.0391 65.5562 21.9424 65.603 21.8296C65.6499 21.7197 65.6763 21.5981 65.6763 21.4722Z" fill="#26588D"/>
<path d="M67.2847 20.7632V20.5918H66.2241V22.3774H66.4087V21.5718H67.2583V21.3989H66.4087V20.7632H67.2847Z" fill="#26588D"/>
<path d="M70.3491 21.8311H70.147C70.084 21.9468 69.9976 22.042 69.8862 22.1094C69.7764 22.1812 69.6533 22.2148 69.5215 22.2148C69.3252 22.2148 69.1567 22.1445 69.0176 21.9966C68.8813 21.8574 68.8154 21.6875 68.8154 21.4868C68.8154 21.2876 68.8813 21.1177 69.0176 20.9756C69.0806 20.9097 69.1567 20.8569 69.2432 20.8188C69.3281 20.7793 69.4116 20.7573 69.4951 20.7573C69.5771 20.7573 69.6475 20.7676 69.7104 20.7866C69.9023 20.8438 70.0474 20.9595 70.144 21.1353H70.3462C70.2773 20.9683 70.1704 20.8306 70.021 20.7266C69.8687 20.6211 69.7031 20.5684 69.5215 20.5684C69.2725 20.5684 69.063 20.6606 68.8887 20.8423C68.8081 20.9258 68.7451 21.0254 68.6997 21.1353C68.6528 21.2466 68.6323 21.3638 68.6323 21.4868C68.6323 21.7402 68.7158 21.9526 68.8887 22.1314C69.063 22.3145 69.2725 22.4038 69.5215 22.4038C69.7031 22.4038 69.8687 22.3511 70.0225 22.2456C70.1733 22.1416 70.2803 22.0054 70.3491 21.8311Z" fill="#26588D"/>
<path d="M71.9204 22.3774V22.2075H71.0444V21.5718H71.894V21.3989H71.0444V20.7632H71.9204V20.5918H70.8599V22.3774H71.9204Z" fill="#26588D"/>
<path d="M72.7319 21.4956V20.7676H73.1465C73.2534 20.7676 73.3413 20.8027 73.4058 20.8701C73.4687 20.939 73.5039 21.0225 73.5039 21.1279C73.5039 21.2334 73.4687 21.3198 73.4014 21.3901C73.3325 21.4619 73.249 21.4956 73.1465 21.4956H72.7319ZM73.687 21.1309C73.687 20.9785 73.6299 20.8467 73.5186 20.7441C73.4116 20.6445 73.2783 20.5918 73.1201 20.5918H72.5474V22.3774H72.7319V21.6714H72.9443L73.4687 22.3774H73.7163L73.1655 21.6714C73.3047 21.6641 73.4219 21.6143 73.5186 21.522C73.6299 21.4194 73.687 21.2876 73.687 21.1309Z" fill="#26588D"/>
<path d="M74.064 20.75H74.4976V22.3643H74.6807V20.75H75.1143V20.5801H74.064V20.75Z" fill="#26588D"/>
<path d="M75.7788 22.3774V20.5918H75.5942V22.3774H75.7788Z" fill="#26588D"/>
<path d="M77.4653 20.7632V20.5918H76.4048V22.3774H76.5894V21.5718H77.439V21.3989H76.5894V20.7632H77.4653Z" fill="#26588D"/>
<path d="M78.1343 22.3774V20.5918H77.9497V22.3774H78.1343Z" fill="#26588D"/>
<path d="M80.4028 21.8311H80.2007C80.1377 21.9468 80.0513 22.042 79.9399 22.1094C79.8301 22.1812 79.707 22.2148 79.5752 22.2148C79.3789 22.2148 79.2104 22.1445 79.0713 21.9966C78.9351 21.8574 78.8691 21.6875 78.8691 21.4868C78.8691 21.2876 78.9351 21.1177 79.0713 20.9756C79.1343 20.9097 79.2104 20.8569 79.2969 20.8188C79.3818 20.7793 79.4653 20.7573 79.5488 20.7573C79.6309 20.7573 79.7012 20.7676 79.7642 20.7866C79.9561 20.8438 80.1011 20.9595 80.1978 21.1353H80.3999C80.3311 20.9683 80.2241 20.8306 80.0747 20.7266C79.9224 20.6211 79.7568 20.5684 79.5752 20.5684C79.3262 20.5684 79.1167 20.6606 78.9424 20.8423C78.8618 20.9258 78.7988 21.0254 78.7534 21.1353C78.7065 21.2466 78.686 21.3638 78.686 21.4868C78.686 21.7402 78.7695 21.9526 78.9424 22.1314C79.1167 22.3145 79.3262 22.4038 79.5752 22.4038C79.7568 22.4038 79.9224 22.3511 80.0762 22.2456C80.227 22.1416 80.334 22.0054 80.4028 21.8311Z" fill="#26588D"/>
<path d="M81.2007 21.7153L81.5259 20.8936L81.8481 21.7153H81.2007ZM82.3081 22.3716L81.5259 20.4629L80.7407 22.3716H80.9399L81.1318 21.8853H81.917L82.1089 22.3716H82.3081Z" fill="#26588D"/>
<path d="M82.6216 20.75H83.0552V22.3643H83.2383V20.75H83.6719V20.5801H82.6216V20.75Z" fill="#26588D"/>
<path d="M85.2134 22.3774V22.2075H84.3374V21.5718H85.187V21.3989H84.3374V20.7632H85.2134V20.5918H84.1528V22.3774H85.2134Z" fill="#26588D"/>
<path d="M86.332 21.5293C86.5635 21.5835 86.7217 21.6436 86.8052 21.7124C86.8623 21.7593 86.8916 21.8193 86.8916 21.894C86.8916 21.9673 86.8755 22.0273 86.8447 22.0698C86.7656 22.1797 86.6235 22.2354 86.4243 22.2354C86.146 22.2354 85.9893 22.1401 85.9541 21.9512H85.7388C85.8018 22.2529 86.0303 22.4023 86.4243 22.4023C86.6001 22.4023 86.7466 22.3657 86.8652 22.2866C87.0073 22.1958 87.0806 22.0596 87.0806 21.8809C87.0806 21.7329 87.0234 21.6201 86.9077 21.5425C86.8257 21.4839 86.6953 21.4312 86.5137 21.3843C86.3306 21.3374 86.2119 21.2979 86.1562 21.2686C86.0361 21.2085 85.9761 21.125 85.9775 21.0137C85.9775 20.9565 85.9893 20.9067 86.0142 20.8701C86.083 20.7676 86.2031 20.7148 86.3774 20.7148C86.6206 20.7148 86.7598 20.7939 86.7964 20.9463H86.9971C86.9312 20.6885 86.7231 20.5566 86.3774 20.5566C86.2192 20.5566 86.0801 20.5991 85.9644 20.6841C85.8472 20.7676 85.7871 20.8906 85.7871 21.0591C85.7871 21.2876 85.9702 21.4443 86.332 21.5293Z" fill="#26588D"/>
</svg>
