<svg width="77" height="30" viewBox="0 0 77 30" fill="none" xmlns="http://www.w3.org/2000/svg">
<path d="M5.03315 0.0853523C4.99047 0.0426761 4.9478 0 4.90512 0H1.27766C1.23498 0 1.23498 0.0426761 1.19231 0.0853523C1.19231 0.0853523 1.14963 0.128028 1.19231 0.170705L10.453 29.9146C10.453 29.9573 10.453 29.9573 10.453 29.9573C10.453 29.9573 10.453 29.9573 10.4957 30C10.5384 30 10.5384 30 10.5384 30C10.581 30 10.581 30 10.581 30C10.6237 30 10.6237 30 10.6237 30V29.9573C10.6664 29.9573 10.6664 29.9573 10.6664 29.9146L12.4588 24.1107L19.9258 0.170705C19.9684 0.128028 19.9258 0.0426761 19.8404 0.0426761C19.7977 0 19.7124 0.0426761 19.7124 0.0853523L12.3734 23.6839L5.03315 0.0853523Z" fill="#0D47A1"/>
<path d="M22.8731 29.872C22.8305 29.9146 22.8731 30 22.9158 30C22.9585 30 22.9585 30 22.9585 30C23.0012 30 23.0438 29.9573 23.0865 29.9146L30.4268 6.31607L37.7671 29.9146C37.8098 29.9573 37.8524 30 37.8951 30H41.5212C41.5212 30 41.5639 30 41.6066 29.9573C41.6066 29.9146 41.6066 29.9146 41.6066 29.872L32.3472 0.0853523C32.3045 0.0426761 32.3045 0.0426761 32.3045 0.0426761C32.3045 0.0426761 32.3045 0.0426761 32.2619 0.0426761C32.2619 0.0426761 32.2619 0 32.2192 0V0.0426761C32.1765 0.0426761 32.1765 0.0426761 32.1765 0.0426761C32.1765 0.0426761 32.1765 0.0426761 32.1338 0.0853523L30.2988 5.93198L22.8731 29.872Z" fill="#0D47A1"/>
<path d="M59.5264 30C63.5366 30 67.2921 28.4637 70.1088 25.6044C70.1514 25.5617 70.1514 25.5191 70.1088 25.4337C70.0661 25.391 69.9807 25.391 69.938 25.4337C67.1641 28.2503 63.4513 29.7867 59.5264 29.7867C53.2957 29.7867 48.2173 23.1719 48.2173 15.0207C48.2173 6.87091 53.2957 0.256105 59.5264 0.256105C63.4513 0.256105 67.1641 1.79245 69.938 4.5664C69.9807 4.60907 70.0661 4.60907 70.1088 4.5664C70.1514 4.52372 70.1514 4.43837 70.1088 4.39569C67.2921 1.57907 63.5366 0.0427246 59.5264 0.0427246C55.5149 0.0427246 51.7594 1.57907 48.9001 4.39569C43.0535 10.2423 43.0535 19.7578 48.9001 25.6044C51.7594 28.4637 55.5149 30 59.5264 30Z" fill="#0D47A1"/>
<mask id="mask0_2945_100576" style="mask-type:luminance" maskUnits="userSpaceOnUse" x="0" y="11" width="77" height="8">
<path d="M0 11.1492H76.6155V18.8922H0V11.1492Z" fill="white"/>
</mask>
<g mask="url(#mask0_2945_100576)">
<path d="M0 11.1492H76.5168V18.6508H0V11.1492Z" fill="#0D47A1"/>
</g>
<path d="M5.86578 15.9182L6.60194 14.1952H6.41924L5.86578 15.5048L5.30833 14.1952H5.12695L5.86578 15.9182Z" fill="white"/>
<path d="M7.98263 15.8209V15.6662H7.18513V15.0874H7.95863V14.93H7.18513V14.3512H7.98263V14.1952H7.01709V15.8209H7.98263Z" fill="white"/>
<path d="M8.72175 15.018V14.3552H9.09916C9.19652 14.3552 9.27654 14.3872 9.33522 14.4486C9.39256 14.5113 9.42457 14.5873 9.42457 14.6833C9.42457 14.7793 9.39256 14.858 9.33121 14.922C9.26853 14.9874 9.19252 15.018 9.09916 15.018H8.72175ZM9.59127 14.686C9.59127 14.5473 9.53926 14.4272 9.4379 14.3339C9.34055 14.2432 9.21919 14.1952 9.07516 14.1952H8.55371V15.8209H8.72175V15.1781H8.91512L9.39256 15.8209H9.61794L9.1165 15.1781C9.2432 15.1714 9.34989 15.1261 9.4379 15.042C9.53926 14.9487 9.59127 14.8287 9.59127 14.686Z" fill="white"/>
<path d="M10.2364 15.8209V14.1952H10.0684V15.8209H10.2364Z" fill="white"/>
<path d="M11.7722 14.3512V14.1952H10.8066V15.8209H10.9747V15.0874H11.7482V14.93H10.9747V14.3512H11.7722Z" fill="white"/>
<path d="M12.3809 15.8209V14.1952H12.2129V15.8209H12.3809Z" fill="white"/>
<path d="M14.4429 15.3234H14.2589C14.2015 15.4288 14.1228 15.5155 14.0215 15.5768C13.9214 15.6422 13.8094 15.6728 13.6894 15.6728C13.5107 15.6728 13.3573 15.6088 13.2306 15.4741C13.1066 15.3474 13.0466 15.1927 13.0466 15.01C13.0466 14.8286 13.1066 14.6739 13.2306 14.5446C13.288 14.4846 13.3573 14.4366 13.436 14.4019C13.5134 14.3659 13.5894 14.3459 13.6654 14.3459C13.7401 14.3459 13.8041 14.3552 13.8614 14.3725C14.0361 14.4246 14.1682 14.5299 14.2562 14.6899H14.4402C14.3775 14.5379 14.2802 14.4125 14.1442 14.3179C14.0055 14.2218 13.8548 14.1738 13.6894 14.1738C13.4627 14.1738 13.272 14.2578 13.1133 14.4232C13.0399 14.4992 12.9826 14.5899 12.9412 14.6899C12.8986 14.7913 12.8799 14.898 12.8799 15.01C12.8799 15.2407 12.9559 15.4341 13.1133 15.5968C13.272 15.7635 13.4627 15.8449 13.6894 15.8449C13.8548 15.8449 14.0055 15.7969 14.1455 15.7008C14.2829 15.6061 14.3802 15.4821 14.4429 15.3234Z" fill="white"/>
<path d="M15.1673 15.218L15.4634 14.4698L15.7568 15.218H15.1673ZM16.1755 15.8155L15.4634 14.0778L14.7485 15.8155H14.9299L15.1046 15.3727H15.8194L15.9941 15.8155H16.1755Z" fill="white"/>
<path d="M16.4595 14.3391H16.8542V15.8088H17.0209V14.3391H17.4157V14.1844H16.4595V14.3391Z" fill="white"/>
<path d="M18.025 15.8209V14.1952H17.8569V15.8209H18.025Z" fill="white"/>
<path d="M20.025 14.9967C20.025 15.1834 19.9583 15.3408 19.8289 15.4702C19.6969 15.6022 19.5395 15.6662 19.3555 15.6662C19.1714 15.6662 19.0141 15.6022 18.8847 15.4702C18.7527 15.3408 18.6887 15.1834 18.6887 14.9967C18.6887 14.8154 18.7527 14.658 18.8847 14.526C19.0141 14.3966 19.1714 14.3299 19.3555 14.3299C19.5395 14.3299 19.6969 14.3966 19.8289 14.526C19.9583 14.658 20.025 14.8154 20.025 14.9967ZM20.1917 14.9967C20.1917 14.882 20.1677 14.774 20.125 14.6713C20.0823 14.5713 20.0223 14.4833 19.9463 14.4059C19.8689 14.3326 19.7809 14.2726 19.6809 14.2299C19.5782 14.1872 19.4702 14.1632 19.3555 14.1632C19.2408 14.1632 19.1314 14.1872 19.0301 14.2299C18.9301 14.2726 18.842 14.3326 18.7647 14.4059C18.6887 14.4833 18.6287 14.5713 18.586 14.6713C18.5433 14.774 18.522 14.882 18.522 14.9967C18.522 15.1114 18.5433 15.2221 18.586 15.3221C18.6287 15.4248 18.6887 15.5128 18.7647 15.5902C18.842 15.6662 18.9301 15.7262 19.0301 15.7689C19.1314 15.8116 19.2408 15.8329 19.3555 15.8329C19.4702 15.8329 19.5782 15.8116 19.6809 15.7689C19.7809 15.7262 19.8689 15.6662 19.9463 15.5902C20.0223 15.5128 20.0823 15.4248 20.125 15.3221C20.1677 15.2221 20.1917 15.1114 20.1917 14.9967Z" fill="white"/>
<path d="M20.8629 14.6193L21.7751 15.9169V14.1912H21.6084V15.3861L20.6948 14.0885V15.8169H20.8629V14.6193Z" fill="white"/>
<path d="M23.4681 15.218L23.7641 14.4698L24.0575 15.218H23.4681ZM24.4763 15.8155L23.7641 14.0778L23.0493 15.8155H23.2307L23.4054 15.3727H24.1202L24.2949 15.8155H24.4763Z" fill="white"/>
<path d="M25.0587 14.6193L25.9709 15.9169V14.1912H25.8042V15.3861L24.8906 14.0885V15.8169H25.0587V14.6193Z" fill="white"/>
<path d="M27.8025 15.0087C27.8025 14.8913 27.7785 14.7833 27.7345 14.6833C27.6918 14.5833 27.6318 14.4966 27.5584 14.4246C27.4811 14.3539 27.3931 14.2979 27.293 14.2579C27.1904 14.2179 27.0797 14.1952 26.965 14.1952H26.5396V15.8209H26.965C27.0797 15.8209 27.1904 15.8022 27.293 15.7609C27.3931 15.7209 27.4811 15.6635 27.5584 15.5915C27.6318 15.5195 27.6918 15.4355 27.7345 15.3354C27.7785 15.2354 27.8025 15.1274 27.8025 15.0087ZM27.6398 15.0087C27.6398 15.1941 27.5731 15.3501 27.4437 15.4715C27.3144 15.5942 27.157 15.6542 26.9703 15.6542H26.7076V14.3632H26.9703C27.157 14.3632 27.3144 14.4246 27.4437 14.5446C27.5731 14.6686 27.6398 14.8247 27.6398 15.0087Z" fill="white"/>
<path d="M29.4232 15.218L29.7192 14.4698L30.0126 15.218H29.4232ZM30.4314 15.8155L29.7192 14.0778L29.0044 15.8155H29.1858L29.3605 15.3727H30.0753L30.25 15.8155H30.4314Z" fill="white"/>
<path d="M32.0229 15.2834V14.1952H31.8562V15.3074C31.8562 15.3741 31.8442 15.4288 31.8202 15.4741C31.7509 15.6088 31.6162 15.6755 31.4188 15.6755C31.2894 15.6755 31.1868 15.6462 31.1107 15.5888C31.0214 15.5248 30.9787 15.4315 30.9787 15.3074V14.1952H30.812V15.2834C30.812 15.4595 30.8694 15.5982 30.984 15.6995C31.0907 15.7942 31.2374 15.8422 31.4188 15.8422C31.5975 15.8422 31.7415 15.7942 31.8509 15.6995C31.9656 15.5982 32.0229 15.4595 32.0229 15.2834Z" fill="white"/>
<path d="M32.4282 14.3391H32.823V15.8088H32.9897V14.3391H33.3844V14.1844H32.4282V14.3391Z" fill="white"/>
<path d="M33.9893 15.8209V15.0941H34.7282V15.8209H34.8949V14.1952H34.7282V14.9274H33.9893V14.1952H33.8213V15.8209H33.9893Z" fill="white"/>
<path d="M36.4333 15.8209V15.6662H35.6358V15.0874H36.4093V14.93H35.6358V14.3512H36.4333V14.1952H35.4678V15.8209H36.4333Z" fill="white"/>
<path d="M37.1734 14.6193L38.0856 15.9169V14.1912H37.9189V15.3861L37.0054 14.0885V15.8169H37.1734V14.6193Z" fill="white"/>
<path d="M38.5254 14.3391H38.9201V15.8088H39.0868V14.3391H39.4816V14.1844H38.5254V14.3391Z" fill="white"/>
<path d="M40.087 15.8209V14.1952H39.9189V15.8209H40.087Z" fill="white"/>
<path d="M42.1519 15.3234H41.9678C41.9105 15.4288 41.8318 15.5155 41.7305 15.5768C41.6304 15.6422 41.5184 15.6728 41.3984 15.6728C41.2197 15.6728 41.0663 15.6088 40.9396 15.4741C40.8156 15.3474 40.7556 15.1927 40.7556 15.01C40.7556 14.8286 40.8156 14.6739 40.9396 14.5446C40.997 14.4846 41.0663 14.4366 41.145 14.4019C41.2223 14.3659 41.2984 14.3459 41.3744 14.3459C41.4491 14.3459 41.5131 14.3552 41.5704 14.3725C41.7451 14.4246 41.8772 14.5299 41.9652 14.6899H42.1492C42.0865 14.5379 41.9892 14.4125 41.8531 14.3179C41.7144 14.2218 41.5637 14.1738 41.3984 14.1738C41.1717 14.1738 40.981 14.2578 40.8223 14.4232C40.7489 14.4992 40.6916 14.5899 40.6502 14.6899C40.6075 14.7913 40.5889 14.898 40.5889 15.01C40.5889 15.2407 40.6649 15.4341 40.8223 15.5968C40.981 15.7635 41.1717 15.8449 41.3984 15.8449C41.5637 15.8449 41.7144 15.7969 41.8545 15.7008C41.9918 15.6061 42.0892 15.4821 42.1519 15.3234Z" fill="white"/>
<path d="M42.8782 15.218L43.1743 14.4698L43.4677 15.218H42.8782ZM43.8865 15.8155L43.1743 14.0778L42.4595 15.8155H42.6408L42.8156 15.3727H43.5304L43.7051 15.8155H43.8865Z" fill="white"/>
<path d="M44.1719 14.3391H44.5666V15.8088H44.7333V14.3391H45.1281V14.1844H44.1719V14.3391Z" fill="white"/>
<path d="M45.7344 15.8209V14.1952H45.5664V15.8209H45.7344Z" fill="white"/>
<path d="M47.7344 14.9966C47.7344 15.1833 47.6678 15.3407 47.5384 15.47C47.4064 15.6021 47.249 15.6661 47.065 15.6661C46.8809 15.6661 46.7236 15.6021 46.5942 15.47C46.4622 15.3407 46.3981 15.1833 46.3981 14.9966C46.3981 14.8152 46.4622 14.6579 46.5942 14.5258C46.7236 14.3965 46.8809 14.3298 47.065 14.3298C47.249 14.3298 47.4064 14.3965 47.5384 14.5258C47.6678 14.6579 47.7344 14.8152 47.7344 14.9966ZM47.9011 14.9966C47.9011 14.8819 47.8771 14.7739 47.8345 14.6712C47.7918 14.5712 47.7318 14.4832 47.6558 14.4058C47.5784 14.3325 47.4904 14.2724 47.3904 14.2298C47.2877 14.1871 47.1797 14.1631 47.065 14.1631C46.9503 14.1631 46.8409 14.1871 46.7396 14.2298C46.6395 14.2724 46.5515 14.3325 46.4742 14.4058C46.3981 14.4832 46.3381 14.5712 46.2955 14.6712C46.2528 14.7739 46.2314 14.8819 46.2314 14.9966C46.2314 15.1113 46.2528 15.222 46.2955 15.322C46.3381 15.4247 46.3981 15.5127 46.4742 15.5901C46.5515 15.6661 46.6395 15.7261 46.7396 15.7688C46.8409 15.8115 46.9503 15.8328 47.065 15.8328C47.1797 15.8328 47.2877 15.8115 47.3904 15.7688C47.4904 15.7261 47.5784 15.6661 47.6558 15.5901C47.7318 15.5127 47.7918 15.4247 47.8345 15.322C47.8771 15.222 47.9011 15.1113 47.9011 14.9966Z" fill="white"/>
<path d="M48.5684 14.6193L49.4806 15.9169V14.1912H49.3139V15.3861L48.4004 14.0885V15.8169H48.5684V14.6193Z" fill="white"/>
<path d="M52.3433 14.9967C52.3433 15.1834 52.2766 15.3408 52.1473 15.4702C52.0153 15.6022 51.8579 15.6662 51.6738 15.6662C51.4898 15.6662 51.3324 15.6022 51.2031 15.4702C51.071 15.3408 51.007 15.1834 51.007 14.9967C51.007 14.8154 51.071 14.658 51.2031 14.526C51.3324 14.3966 51.4898 14.3299 51.6738 14.3299C51.8579 14.3299 52.0153 14.3966 52.1473 14.526C52.2766 14.658 52.3433 14.8154 52.3433 14.9967ZM52.51 14.9967C52.51 14.882 52.486 14.774 52.4434 14.6713C52.4007 14.5713 52.3407 14.4833 52.2646 14.4059C52.1873 14.3326 52.0993 14.2726 51.9993 14.2299C51.8966 14.1872 51.7885 14.1632 51.6738 14.1632C51.5592 14.1632 51.4498 14.1872 51.3484 14.2299C51.2484 14.2726 51.1604 14.3326 51.0831 14.4059C51.007 14.4833 50.947 14.5713 50.9043 14.6713C50.8617 14.774 50.8403 14.882 50.8403 14.9967C50.8403 15.1114 50.8617 15.2221 50.9043 15.3221C50.947 15.4248 51.007 15.5128 51.0831 15.5902C51.1604 15.6662 51.2484 15.7262 51.3484 15.7689C51.4498 15.8116 51.5592 15.8329 51.6738 15.8329C51.7885 15.8329 51.8966 15.8116 51.9993 15.7689C52.0993 15.7262 52.1873 15.6662 52.2646 15.5902C52.3407 15.5128 52.4007 15.4248 52.4434 15.3221C52.486 15.2221 52.51 15.1114 52.51 14.9967Z" fill="white"/>
<path d="M53.9743 14.3512V14.1952H53.0088V15.8209H53.1768V15.0874H53.9503V14.93H53.1768V14.3512H53.9743Z" fill="white"/>
<path d="M56.7642 15.3234H56.5801C56.5228 15.4288 56.4441 15.5155 56.3428 15.5768C56.2427 15.6422 56.1307 15.6728 56.0107 15.6728C55.832 15.6728 55.6786 15.6088 55.5519 15.4741C55.4279 15.3474 55.3679 15.1927 55.3679 15.01C55.3679 14.8286 55.4279 14.6739 55.5519 14.5446C55.6093 14.4846 55.6786 14.4366 55.7573 14.4019C55.8346 14.3659 55.9107 14.3459 55.9867 14.3459C56.0614 14.3459 56.1254 14.3552 56.1827 14.3725C56.3574 14.4246 56.4895 14.5299 56.5775 14.6899H56.7615C56.6988 14.5379 56.6015 14.4125 56.4654 14.3179C56.3268 14.2218 56.1761 14.1738 56.0107 14.1738C55.784 14.1738 55.5933 14.2578 55.4346 14.4232C55.3612 14.4992 55.3039 14.5899 55.2625 14.6899C55.2198 14.7913 55.2012 14.898 55.2012 15.01C55.2012 15.2407 55.2772 15.4341 55.4346 15.5968C55.5933 15.7635 55.784 15.8449 56.0107 15.8449C56.1761 15.8449 56.3268 15.7969 56.4668 15.7008C56.6041 15.6061 56.7015 15.4821 56.7642 15.3234Z" fill="white"/>
<path d="M58.1945 15.8209V15.6662H57.397V15.0874H58.1705V14.93H57.397V14.3512H58.1945V14.1952H57.229V15.8209H58.1945Z" fill="white"/>
<path d="M58.9337 15.018V14.3552H59.3111C59.4084 14.3552 59.4885 14.3872 59.5471 14.4486C59.6045 14.5113 59.6365 14.5873 59.6365 14.6833C59.6365 14.7793 59.6045 14.858 59.5431 14.922C59.4804 14.9874 59.4044 15.018 59.3111 15.018H58.9337ZM59.8032 14.686C59.8032 14.5473 59.7512 14.4272 59.6498 14.3339C59.5525 14.2432 59.4311 14.1952 59.2871 14.1952H58.7656V15.8209H58.9337V15.1781H59.127L59.6045 15.8209H59.8299L59.3284 15.1781C59.4551 15.1714 59.5618 15.1261 59.6498 15.042C59.7512 14.9487 59.8032 14.8287 59.8032 14.686Z" fill="white"/>
<path d="M60.1465 14.3393H60.5412V15.8089H60.7079V14.3393H61.1027V14.1846H60.1465V14.3393Z" fill="white"/>
<path d="M61.7076 15.8209V14.1952H61.5396V15.8209H61.7076Z" fill="white"/>
<path d="M63.2429 14.3512V14.1952H62.2773V15.8209H62.4454V15.0874H63.2189V14.93H62.4454V14.3512H63.2429Z" fill="white"/>
<path d="M63.8521 15.8209V14.1952H63.6841V15.8209H63.8521Z" fill="white"/>
<path d="M65.9175 15.3234H65.7335C65.6761 15.4288 65.5974 15.5155 65.4961 15.5768C65.3961 15.6422 65.284 15.6728 65.164 15.6728C64.9853 15.6728 64.8319 15.6088 64.7052 15.4741C64.5812 15.3474 64.5212 15.1927 64.5212 15.01C64.5212 14.8286 64.5812 14.6739 64.7052 14.5446C64.7626 14.4846 64.8319 14.4366 64.9106 14.4019C64.988 14.3659 65.064 14.3459 65.14 14.3459C65.2147 14.3459 65.2787 14.3552 65.336 14.3725C65.5107 14.4246 65.6428 14.5299 65.7308 14.6899H65.9148C65.8522 14.5379 65.7548 14.4125 65.6188 14.3179C65.4801 14.2218 65.3294 14.1738 65.164 14.1738C64.9373 14.1738 64.7466 14.2578 64.5879 14.4232C64.5145 14.4992 64.4572 14.5899 64.4158 14.6899C64.3732 14.7913 64.3545 14.898 64.3545 15.01C64.3545 15.2407 64.4305 15.4341 64.5879 15.5968C64.7466 15.7635 64.9373 15.8449 65.164 15.8449C65.3294 15.8449 65.4801 15.7969 65.6201 15.7008C65.7575 15.6061 65.8548 15.4821 65.9175 15.3234Z" fill="white"/>
<path d="M66.6439 15.218L66.9399 14.4698L67.2333 15.218H66.6439ZM67.6521 15.8155L66.9399 14.0778L66.2251 15.8155H66.4065L66.5812 15.3727H67.296L67.4707 15.8155H67.6521Z" fill="white"/>
<path d="M67.9375 14.3391H68.3323V15.8088H68.499V14.3391H68.8937V14.1844H67.9375V14.3391Z" fill="white"/>
<path d="M70.2971 15.8209V15.6662H69.4996V15.0874H70.2731V14.93H69.4996V14.3512H70.2971V14.1952H69.3315V15.8209H70.2971Z" fill="white"/>
<path d="M71.3155 15.0487C71.5262 15.0981 71.6703 15.1528 71.7463 15.2154C71.7983 15.2581 71.825 15.3128 71.825 15.3808C71.825 15.4475 71.8103 15.5022 71.7823 15.5408C71.7103 15.6409 71.5809 15.6915 71.3995 15.6915C71.1461 15.6915 71.0034 15.6049 70.9714 15.4328H70.7754C70.8327 15.7076 71.0408 15.8436 71.3995 15.8436C71.5596 15.8436 71.6929 15.8102 71.8009 15.7382C71.9303 15.6555 71.997 15.5315 71.997 15.3688C71.997 15.2341 71.945 15.1314 71.8396 15.0607C71.7649 15.0074 71.6462 14.9594 71.4809 14.9167C71.3142 14.874 71.2062 14.838 71.1555 14.8114C71.0461 14.7567 70.9914 14.6807 70.9928 14.5793C70.9928 14.5273 71.0034 14.4819 71.0261 14.4486C71.0888 14.3553 71.1982 14.3072 71.3569 14.3072C71.5782 14.3072 71.7049 14.3793 71.7383 14.518H71.921C71.861 14.2832 71.6716 14.1632 71.3569 14.1632C71.2128 14.1632 71.0861 14.2019 70.9808 14.2792C70.8741 14.3553 70.8194 14.4673 70.8194 14.6206C70.8194 14.8287 70.9861 14.9714 71.3155 15.0487Z" fill="white"/>
</svg>
