<svg width="25" height="24" viewBox="0 0 25 24" fill="none" xmlns="http://www.w3.org/2000/svg">
<g clip-path="url(#clip0_2281_5350)">
<path d="M0.266724 0.186401V23.8137H23.894V0.186401H0.266724ZM13.7517 8.00796C13.7517 8.00796 14.4995 13.6435 14.4995 13.9035L15.5842 10.506H15.5767C16.0552 9.21978 16.9977 8.00796 18.7927 8.00796L16.2496 14.1486C16.0289 14.8444 15.5909 15.4523 14.9993 15.8841C14.4077 16.3159 13.6931 16.5493 12.9592 16.5503C12.9592 16.5503 12.211 11.2716 12.211 11.1525L11.0894 14.0522C10.5882 15.3385 9.61622 16.5503 7.82129 16.5503L6.41504 8.01565C7.09937 8.0327 7.75366 8.29862 8.25399 8.76305C8.75432 9.22747 9.06594 9.85815 9.12985 10.5357C9.12985 10.5357 9.31697 13.6656 9.31697 13.9108L10.6407 10.5058C11.1194 9.21959 12.0316 8.00796 13.7517 8.00796Z" fill="#4353FF"/>
</g>
<defs>
<clipPath id="clip0_2281_5350">
<rect width="24" height="24" fill="white" transform="translate(0.0803223)"/>
</clipPath>
</defs>
</svg>
