<svg width="152" height="42" viewBox="0 0 152 42" fill="none" xmlns="http://www.w3.org/2000/svg">
<rect width="102.2" height="42" rx="5.6" fill="black"/>
<g clip-path="url(#clip0_2345_8349)">
<path d="M102.5 18.2955V9.1745H108.45V10.2759H103.712V13.1657H108.205V14.2791H103.712V17.1928H108.45V18.2942H102.5V18.2955Z" fill="white"/>
<path d="M110.494 18.2954V12.7856H109.234V11.6961H110.494V11.243C110.494 10.7621 110.596 10.3568 110.8 10.0313C111.005 9.70447 111.281 9.45602 111.633 9.28462C111.984 9.11323 112.372 9.0282 112.796 9.0282C112.886 9.0282 112.986 9.03484 113.095 9.0468C113.206 9.05876 113.298 9.07337 113.371 9.08932V10.1057C113.305 10.0898 113.228 10.0791 113.138 10.0752C113.048 10.0712 112.979 10.0685 112.93 10.0685C112.554 10.0685 112.247 10.1589 112.005 10.3382C111.765 10.5176 111.644 10.8205 111.644 11.2444V11.6974H113.212V12.7869H111.644V18.2967H110.494V18.2954Z" fill="white"/>
<path d="M115.354 18.2954V12.7856H114.094V11.6961H115.354V11.243C115.354 10.7621 115.457 10.3568 115.66 10.0313C115.865 9.70447 116.141 9.45602 116.493 9.28462C116.844 9.11323 117.232 9.0282 117.656 9.0282C117.746 9.0282 117.846 9.03484 117.956 9.0468C118.066 9.05876 118.158 9.07337 118.231 9.08932V10.1057C118.166 10.0898 118.089 10.0791 117.999 10.0752C117.909 10.0712 117.839 10.0685 117.79 10.0685C117.414 10.0685 117.107 10.1589 116.866 10.3382C116.625 10.5176 116.504 10.8205 116.504 11.2444V11.6974H118.072V12.7869H116.504V18.2967H115.354V18.2954Z" fill="white"/>
<path d="M122.64 18.443C122.011 18.443 121.44 18.2941 120.926 17.9965C120.412 17.6989 120.001 17.2884 119.696 16.7662C119.39 16.244 119.236 15.6515 119.236 14.9912C119.236 14.3295 119.387 13.7422 119.689 13.228C119.991 12.7139 120.399 12.306 120.914 12.0031C121.428 11.7015 122.004 11.55 122.64 11.55C123.284 11.55 123.864 11.6988 124.377 11.9964C124.892 12.294 125.299 12.7006 125.596 13.2148C125.894 13.7289 126.043 14.3215 126.043 14.9898C126.043 15.6595 125.887 16.2534 125.577 16.7715C125.266 17.2897 124.858 17.6976 124.347 17.9965C123.838 18.2941 123.268 18.443 122.64 18.443ZM122.64 17.3402C123.056 17.3402 123.429 17.2378 123.76 17.0346C124.09 16.8299 124.351 16.5497 124.544 16.1896C124.735 15.8308 124.831 15.4309 124.831 14.9898C124.831 14.5487 124.735 14.1528 124.544 13.802C124.351 13.4513 124.09 13.1736 123.76 12.969C123.429 12.7657 123.056 12.6634 122.64 12.6634C122.232 12.6634 121.862 12.7657 121.532 12.969C121.201 13.1736 120.938 13.4513 120.741 13.802C120.546 14.1528 120.448 14.5487 120.448 14.9898C120.448 15.4309 120.546 15.8308 120.741 16.1896C120.938 16.5483 121.201 16.8299 121.532 17.0346C121.862 17.2392 122.232 17.3402 122.64 17.3402Z" fill="white"/>
<path d="M127.513 18.2955V11.6962H128.64V12.9079L128.518 12.7365C128.673 12.3605 128.909 12.0815 129.227 11.8981C129.545 11.7148 129.933 11.6231 130.39 11.6231H130.794V12.7126H130.218C129.753 12.7126 129.378 12.8561 129.092 13.1417C128.806 13.4274 128.662 13.8353 128.662 14.3654V18.2955H127.513Z" fill="white"/>
<path d="M134.491 18.3684C133.847 18.3684 133.349 18.185 132.998 17.817C132.647 17.449 132.471 16.9322 132.471 16.2625V12.7855H131.284V11.696H131.529C131.822 11.696 132.053 11.6057 132.22 11.4263C132.388 11.2469 132.471 11.0104 132.471 10.7168V10.1787H133.622V11.6973H135.103V12.7868H133.622V16.2266C133.622 16.4472 133.657 16.6385 133.726 16.802C133.795 16.9653 133.912 17.0943 134.075 17.1872C134.239 17.2816 134.455 17.3281 134.723 17.3281C134.781 17.3281 134.852 17.3241 134.938 17.3161C135.024 17.3081 135.103 17.3001 135.177 17.2922V18.2967C135.071 18.3205 134.952 18.3392 134.822 18.3525C134.692 18.3631 134.581 18.3684 134.491 18.3684Z" fill="white"/>
<path d="M106.712 33.164C106.068 33.164 105.471 33.0485 104.925 32.8147C104.378 32.5821 103.905 32.254 103.505 31.8288C103.104 31.4049 102.792 30.9067 102.568 30.3354C102.344 29.7641 102.232 29.1397 102.232 28.462C102.232 27.7765 102.344 27.148 102.568 26.5767C102.792 26.0054 103.104 25.5071 103.505 25.0833C103.905 24.6594 104.376 24.33 104.918 24.0975C105.462 23.8649 106.06 23.748 106.712 23.748C107.34 23.748 107.906 23.8583 108.408 24.0789C108.91 24.2994 109.333 24.585 109.68 24.9358C110.027 25.2866 110.274 25.6626 110.42 26.0625L109.318 26.5767C109.105 26.0625 108.775 25.648 108.326 25.3344C107.877 25.0209 107.339 24.8627 106.711 24.8627C106.075 24.8627 105.508 25.0142 105.015 25.3158C104.521 25.6174 104.136 26.0386 103.858 26.5767C103.58 27.1148 103.443 27.7446 103.443 28.462C103.443 29.1715 103.58 29.796 103.858 30.3354C104.136 30.8748 104.521 31.2947 105.015 31.5962C105.51 31.8979 106.075 32.0493 106.711 32.0493C107.339 32.0493 107.878 31.8925 108.326 31.5777C108.775 31.2641 109.105 30.8535 109.318 30.3474L110.42 30.8495C110.274 31.2495 110.025 31.6255 109.68 31.9763C109.333 32.327 108.91 32.6126 108.408 32.8332C107.906 33.0551 107.34 33.164 106.712 33.164Z" fill="white"/>
<path d="M111.903 33.0181V26.4188H113.03V27.6305L112.907 27.4591C113.063 27.0831 113.299 26.8041 113.617 26.6207C113.934 26.4374 114.323 26.3457 114.78 26.3457H115.184V27.4352H114.608C114.143 27.4352 113.767 27.5787 113.481 27.8644C113.196 28.15 113.052 28.5579 113.052 29.088V33.0181H111.903Z" fill="white"/>
<path d="M119.237 33.1641C118.601 33.1641 118.031 33.0127 117.529 32.711C117.027 32.4094 116.633 31.9949 116.348 31.4687C116.062 30.9426 115.919 30.3527 115.919 29.699C115.919 29.0374 116.061 28.4501 116.348 27.9359C116.633 27.4218 117.017 27.0152 117.498 26.7176C117.979 26.42 118.527 26.2712 119.139 26.2712C119.629 26.2712 120.064 26.3588 120.443 26.5342C120.822 26.7096 121.144 26.9461 121.409 27.2437C121.675 27.5413 121.878 27.8801 122.022 28.2601C122.164 28.6401 122.236 29.0334 122.236 29.4413C122.236 29.5396 122.229 29.6419 122.217 29.7469C122.205 29.8531 122.191 29.9595 122.175 30.0657H116.764V29.0745H121.513L120.962 29.5157C121.043 29.0918 121.006 28.7119 120.852 28.3771C120.696 28.0422 120.468 27.7765 120.166 27.5812C119.865 27.3859 119.522 27.2876 119.138 27.2876C118.754 27.2876 118.403 27.3872 118.085 27.5878C117.767 27.7884 117.52 28.0674 117.344 28.4262C117.169 28.7849 117.097 29.214 117.13 29.7123C117.097 30.1946 117.172 30.6171 117.357 30.9799C117.541 31.3425 117.802 31.6242 118.141 31.8248C118.48 32.0255 118.85 32.1251 119.249 32.1251C119.69 32.1251 120.061 32.0228 120.364 31.8195C120.665 31.6162 120.912 31.3545 121.099 31.0357L122.054 31.5245C121.924 31.8262 121.722 32.1025 121.448 32.351C121.174 32.5995 120.85 32.7974 120.474 32.9449C120.098 33.091 119.687 33.1641 119.237 33.1641Z" fill="white"/>
<path d="M125.651 33.1641C125.219 33.1641 124.836 33.0843 124.501 32.9249C124.166 32.7655 123.906 32.5449 123.717 32.2632C123.53 31.9816 123.435 31.6574 123.435 31.2893C123.435 30.9386 123.513 30.6224 123.668 30.3407C123.824 30.0591 124.061 29.8199 124.384 29.6246C124.707 29.4293 125.112 29.2898 125.602 29.2087L128.039 28.8048V29.7601L125.86 30.1401C125.435 30.2132 125.127 30.346 124.935 30.5373C124.743 30.7287 124.647 30.9678 124.647 31.2535C124.647 31.5232 124.755 31.7478 124.972 31.9271C125.188 32.1064 125.459 32.1968 125.786 32.1968C126.202 32.1968 126.563 32.1091 126.87 31.9338C127.175 31.7584 127.415 31.5192 127.586 31.2176C127.758 30.916 127.842 30.5852 127.842 30.2265V28.5364C127.842 28.1777 127.712 27.8854 127.45 27.6609C127.189 27.4363 126.842 27.3247 126.41 27.3247C126.034 27.3247 125.702 27.423 125.413 27.6183C125.123 27.8136 124.909 28.0674 124.769 28.377L123.778 27.8628C123.901 27.5612 124.097 27.2888 124.365 27.0484C124.635 26.8079 124.949 26.6179 125.309 26.4784C125.667 26.3402 126.043 26.2698 126.435 26.2698C126.941 26.2698 127.385 26.3655 127.77 26.5581C128.152 26.7494 128.452 27.0178 128.669 27.3593C128.885 27.702 128.993 28.094 128.993 28.5351V33.0166H127.878V31.7676L128.087 31.854C127.947 32.1064 127.759 32.3337 127.518 32.533C127.278 32.7336 127 32.8877 126.685 32.998C126.373 33.1096 126.028 33.1641 125.651 33.1641Z" fill="white"/>
<path d="M133.438 33.0909C132.794 33.0909 132.296 32.9076 131.945 32.5395C131.594 32.1715 131.419 31.6546 131.419 30.985V27.508H130.231V26.4185H130.476C130.769 26.4185 131 26.3281 131.168 26.1488C131.335 25.9695 131.419 25.7329 131.419 25.4393V24.9012H132.57V26.4198H134.051V27.5093H132.57V30.9491C132.57 31.1697 132.604 31.361 132.673 31.5244C132.742 31.6879 132.859 31.8168 133.022 31.9097C133.186 32.0041 133.403 32.0506 133.671 32.0506C133.728 32.0506 133.8 32.0466 133.885 32.0386C133.971 32.0307 134.051 32.0227 134.124 32.0147V33.0192C134.018 33.0431 133.9 33.0616 133.769 33.0749C133.639 33.0856 133.529 33.0909 133.438 33.0909Z" fill="white"/>
<path d="M135.594 25.3665V23.897H136.744V25.3665H135.594ZM135.594 33.0181V26.4188H136.744V33.0181H135.594Z" fill="white"/>
<path d="M140.344 33.0181L137.761 26.4188H139.034L141.103 32.0017H140.662L142.743 26.4188H144.017L141.421 33.0181H140.344Z" fill="white"/>
<path d="M148.07 33.1641C147.433 33.1641 146.864 33.0127 146.361 32.711C145.859 32.4094 145.466 31.9949 145.18 31.4687C144.894 30.9426 144.751 30.3527 144.751 29.699C144.751 29.0374 144.893 28.4501 145.18 27.9359C145.466 27.4218 145.849 27.0152 146.33 26.7176C146.811 26.42 147.358 26.2712 147.971 26.2712C148.462 26.2712 148.896 26.3588 149.274 26.5342C149.654 26.7096 149.976 26.9461 150.242 27.2437C150.508 27.5413 150.711 27.8801 150.854 28.2601C150.996 28.6401 151.068 29.0334 151.068 29.4413C151.068 29.5396 151.061 29.6419 151.05 29.7469C151.038 29.8531 151.023 29.9595 151.008 30.0657H145.596V29.0745H150.345L149.794 29.5157C149.875 29.0918 149.838 28.7119 149.684 28.3771C149.528 28.0422 149.3 27.7765 148.999 27.5812C148.697 27.3859 148.354 27.2876 147.97 27.2876C147.586 27.2876 147.235 27.3872 146.917 27.5878C146.599 27.7884 146.352 28.0674 146.176 28.4262C146.001 28.7849 145.929 29.214 145.963 29.7123C145.929 30.1946 146.005 30.6171 146.189 30.9799C146.373 31.3425 146.635 31.6242 146.973 31.8248C147.312 32.0255 147.682 32.1251 148.082 32.1251C148.523 32.1251 148.894 32.0228 149.197 31.8195C149.498 31.6162 149.743 31.3545 149.931 31.0357L150.886 31.5245C150.756 31.8262 150.554 32.1025 150.28 32.351C150.007 32.5995 149.682 32.7974 149.307 32.9449C148.931 33.091 148.518 33.1641 148.07 33.1641Z" fill="white"/>
<path d="M8.53162 33.0151V29.0318L19.3321 13.5798H8.57148V9.27905H25.5766V13.261L14.8081 28.713H25.57V33.0138H8.53162V33.0151Z" fill="white"/>
<path d="M36.3768 33.3963C34.5287 33.3963 32.925 32.9884 31.5658 32.17C30.2066 31.3529 29.1544 30.2528 28.4117 28.8724C27.6677 27.4919 27.2969 25.9626 27.2969 24.2846C27.2969 22.5428 27.6849 20.9922 28.4595 19.633C29.2341 18.2738 30.281 17.2016 31.5977 16.4151C32.9144 15.6298 34.4012 15.2366 36.0579 15.2366C37.4384 15.2366 38.6594 15.4545 39.721 15.8902C40.7826 16.3261 41.6807 16.9372 42.4128 17.7225C43.1449 18.509 43.7029 19.4165 44.0855 20.4462C44.4682 21.4771 44.6595 22.5972 44.6595 23.8076C44.6595 24.1477 44.6436 24.4825 44.6117 24.8107C44.5798 25.1402 44.5213 25.4219 44.4363 25.6557H31.4051V22.1508H41.7286L39.4659 23.8076C39.6785 22.8949 39.6678 22.0817 39.434 21.3709C39.2002 20.6587 38.7909 20.0967 38.2077 19.6822C37.6231 19.2677 36.907 19.0604 36.0566 19.0604C35.2276 19.0604 34.5167 19.2623 33.9215 19.6662C33.3263 20.0701 32.8812 20.6654 32.5835 21.4506C32.286 22.2371 32.1691 23.1924 32.2328 24.3178C32.1478 25.2956 32.2647 26.1553 32.5835 26.8993C32.9025 27.6434 33.3901 28.2213 34.0491 28.6358C34.7067 29.0504 35.5039 29.2576 36.4393 29.2576C37.2882 29.2576 38.0164 29.0875 38.6222 28.7474C39.2281 28.4086 39.6997 27.9409 40.0399 27.3457L43.8637 29.162C43.5236 30.0123 42.9881 30.755 42.2547 31.3928C41.5213 32.0292 40.6564 32.5234 39.6586 32.8742C38.6594 33.2223 37.5659 33.3963 36.3768 33.3963Z" fill="white"/>
<path d="M47.814 33.0151V9.27905H56.8938C58.5294 9.27905 59.9789 9.56603 61.2424 10.1387C62.506 10.7126 63.4998 11.5616 64.2212 12.687C64.9427 13.8124 65.3041 15.2034 65.3041 16.8602C65.3041 18.4745 64.9321 19.8496 64.1894 20.987C63.4453 22.123 62.4476 22.9786 61.1946 23.5512L66.6114 33.0138H61.0671L55.2052 22.5322L58.3912 24.4122H52.7525V33.0138H47.814V33.0151ZM52.7525 20.1114H56.9258C57.6272 20.1114 58.2318 19.9732 58.742 19.6968C59.2522 19.4218 59.6508 19.0392 59.9364 18.5502C60.2234 18.0613 60.3669 17.4993 60.3669 16.8616C60.3669 16.2039 60.2234 15.6299 59.9364 15.141C59.6495 14.652 59.2509 14.2707 58.742 13.9944C58.2318 13.718 57.6272 13.5798 56.9258 13.5798H52.7525V20.1114Z" fill="white"/>
<path d="M80.9487 33.3963C79.1644 33.3963 77.5075 33.088 75.9782 32.4728C74.449 31.8563 73.1163 30.9914 71.9804 29.8754C70.8444 28.7606 69.9569 27.4599 69.3205 25.9732C68.6827 24.4864 68.3638 22.8721 68.3638 21.1303C68.3638 19.3885 68.6774 17.7741 69.3032 16.2874C69.929 14.8007 70.8112 13.5053 71.9471 12.3998C73.0832 11.2958 74.4157 10.4361 75.9464 9.81964C77.4756 9.20448 79.1427 8.89624 80.9487 8.89624C82.754 8.89624 84.4214 9.20448 85.9509 9.81964C87.4804 10.4361 88.8125 11.2958 89.9486 12.3998C91.0847 13.5053 91.9667 14.8007 92.5925 16.2874C93.2183 17.7741 93.5319 19.3885 93.5319 21.1303C93.5319 22.8721 93.2134 24.4864 92.5771 25.9732C91.9401 27.4599 91.0532 28.7606 89.9171 29.8754C88.781 30.9901 87.4482 31.8563 85.918 32.4728C84.3899 33.0893 82.733 33.3963 80.9487 33.3963ZM80.9487 28.936C82.0316 28.936 83.0361 28.7447 83.9594 28.3634C84.8827 27.9807 85.6961 27.4453 86.3961 26.7544C87.0975 26.0648 87.6386 25.2411 88.0208 24.2858C88.4037 23.3305 88.5948 22.2782 88.5948 21.1316C88.5948 19.985 88.4037 18.938 88.0208 17.9934C87.6386 17.0487 87.0975 16.225 86.3961 15.5248C85.6947 14.8246 84.8827 14.2878 83.9594 13.9158C83.0361 13.5438 82.0316 13.3578 80.9487 13.3578C79.8658 13.3578 78.8613 13.5438 77.9379 13.9158C77.0146 14.2878 76.2015 14.8246 75.5012 15.5248C74.7997 16.2263 74.259 17.0487 73.8763 17.9934C73.4937 18.938 73.3023 19.985 73.3023 21.1316C73.3023 22.2782 73.4937 23.3305 73.8763 24.2858C74.259 25.2411 74.7997 26.0648 75.5012 26.7544C76.2028 27.4453 77.0146 27.9807 77.9379 28.3634C78.8627 28.7447 79.8658 28.936 80.9487 28.936Z" fill="white"/>
<path d="M44.7886 9.25787H27.4819V13.4962H44.7886V9.25787Z" fill="#42DEA6"/>
</g>
<defs>
<clipPath id="clip0_2345_8349">
<rect width="142.8" height="25.2" fill="white" transform="translate(8.40002 8.39996)"/>
</clipPath>
</defs>
</svg>
